<svg width="32" height="32" viewBox="0 0 32 32" fill="none" xmlns="http://www.w3.org/2000/svg">
<path fill-rule="evenodd" clip-rule="evenodd" d="M14.9013 3.61775C13.5361 3.82656 12.3164 4.45587 11.3604 5.44469C10.3117 6.52942 9.76825 7.78202 9.69352 9.28657C9.58914 11.3879 10.649 13.3968 12.4762 14.5611C13.3749 15.1337 14.2418 15.4245 15.2918 15.5054C17.2379 15.6554 18.8974 15.0603 20.237 13.7317C21.2975 12.6801 21.8399 11.5358 21.9719 10.0713C22.1483 8.11496 21.3918 6.29298 19.8751 5.02181C18.897 4.20192 17.9945 3.79699 16.7508 3.61994C16.1534 3.53486 15.4486 3.53404 14.9013 3.61775ZM10.3612 15.6143C8.10057 15.8466 6.53407 17.425 5.80359 20.2064C5.3165 22.0611 5.19122 24.2897 5.50555 25.5082C5.7581 26.4871 6.59091 27.4804 7.5556 27.9534C7.9938 28.1682 8.61981 28.3463 9.14179 28.4047C9.45107 28.4394 11.812 28.4512 16.3259 28.4408L23.0494 28.4253L23.4743 28.3118C25.0517 27.8905 26.1343 26.8621 26.5283 25.411C26.7335 24.655 26.7072 22.8561 26.4702 21.4346C25.9432 18.2747 24.6138 16.3776 22.5108 15.7846C22.03 15.6491 21.1698 15.5459 20.9148 15.5934C20.6708 15.6387 20.3298 15.816 19.56 16.2976C18.74 16.8106 18.6263 16.869 18.0123 17.0929C17.3011 17.3521 16.7141 17.4614 16.033 17.4615C15.3289 17.4615 14.7905 17.3677 14.0804 17.1212C13.4099 16.8885 13.3808 16.8736 12.3336 16.2264C11.7814 15.8852 11.3728 15.6666 11.2105 15.6256C10.933 15.5556 10.933 15.5556 10.3612 15.6143Z" fill="#FDFDFD"/>
</svg>
