<svg width="20" height="39" viewBox="0 0 20 39" fill="none" xmlns="http://www.w3.org/2000/svg">
<path d="M16.0062 39.0009C15.5522 39.0019 15.1039 38.8998 14.6951 38.7023C14.2863 38.5048 13.9277 38.2171 13.6462 37.8609L0.646195 21.3609C0.227667 20.8313 0 20.176 0 19.5009C0 18.8259 0.227667 18.1706 0.646195 17.6409L13.6462 1.14094C13.8905 0.831675 14.1932 0.57355 14.5372 0.381302C14.8813 0.189054 15.2598 0.0664474 15.6512 0.0204824C16.0426 -0.0254826 16.4392 0.00609426 16.8184 0.11341C17.1976 0.220726 17.5519 0.401679 17.8612 0.645938C18.1705 0.890196 18.4286 1.19298 18.6208 1.53699C18.8131 1.88101 18.9357 2.25952 18.9816 2.65092C19.0276 3.04232 18.996 3.43894 18.8887 3.81813C18.7814 4.19733 18.6005 4.55167 18.3562 4.86094L6.82619 19.5009L18.3662 34.1409C18.7159 34.5835 18.9338 35.1158 18.9948 35.6766C19.0558 36.2373 18.9575 36.804 18.711 37.3114C18.4646 37.8188 18.0802 38.2465 17.6017 38.5454C17.1233 38.8442 16.5703 39.0021 16.0062 39.0009Z" fill="#333333"/>
</svg>
