<svg width="20" height="20" viewBox="0 0 20 20" fill="none" xmlns="http://www.w3.org/2000/svg">
<g clip-path="url(#clip0_744_9356)">
<path fill-rule="evenodd" clip-rule="evenodd" d="M9.37753 2.05054C10.9298 2.03389 12.4257 2.47616 13.8653 3.37748C15.4719 4.36642 16.5881 5.64742 17.214 7.2206C17.2808 7.3792 17.3413 7.54194 17.3955 7.70881C17.4707 7.90071 17.5269 8.099 17.5646 8.30343C17.6397 8.55793 17.6919 8.82081 17.7211 9.09208C17.7878 9.47602 17.8191 9.85157 17.815 10.2187C17.8191 10.2604 17.8191 10.3044 17.815 10.3502C17.8233 12.2739 17.0805 13.9179 15.5866 15.2824C15.3762 15.475 15.1592 15.6536 14.9358 15.8174C13.774 16.5158 12.4595 16.8528 10.9925 16.8283C10.7338 16.82 10.4646 16.8011 10.1851 16.7719C8.1446 16.53 6.39404 15.6725 4.93366 14.1994C3.62336 12.8474 2.864 11.2848 2.65532 9.51132C2.63867 9.30264 2.62403 9.10861 2.61151 8.92922C2.5906 8.34925 2.63442 7.78792 2.74295 7.24551C2.92234 6.35671 3.27911 5.52011 3.81327 4.73559C4.26292 4.08689 4.78757 3.53921 5.38744 3.09256C6.06356 2.69085 6.82192 2.3998 7.66265 2.21941C8.25501 2.09435 8.82672 2.03802 9.37753 2.05054Z" fill="#FFAB0F"/>
<path fill-rule="evenodd" clip-rule="evenodd" d="M9.37749 2.05054C10.9298 2.03389 12.4257 2.47616 13.8653 3.37748C15.4719 4.36642 16.588 5.64742 17.214 7.2206C17.2808 7.3792 17.3413 7.54194 17.3955 7.70881C17.4707 7.90071 17.5269 8.099 17.5646 8.30343C17.6397 8.55793 17.6919 8.82081 17.7211 9.09208C17.7878 9.47602 17.8191 9.85157 17.815 10.2187C17.8191 10.2604 17.8191 10.3044 17.815 10.3502C17.8228 12.1944 17.1406 13.7821 15.7681 15.1134C14.6404 15.9197 13.2865 16.3245 11.7059 16.3277C9.4675 16.3278 7.49073 15.535 5.77535 13.9492C4.03793 12.3367 3.146 10.4568 3.09956 8.30969C3.04886 6.22789 3.80409 4.55157 5.36537 3.28046C5.66531 3.03635 5.97727 2.82141 6.30112 2.63577C6.72849 2.46139 7.18228 2.32268 7.66248 2.21953C8.25497 2.09435 8.82669 2.03802 9.37749 2.05054Z" fill="url(#paint0_radial_744_9356)"/>
<path fill-rule="evenodd" clip-rule="evenodd" d="M9.3776 2.0504C8.82679 2.03788 8.25508 2.09421 7.66259 2.21939C7.18239 2.32242 6.7286 2.46125 6.30122 2.63563C5.97737 2.8214 5.66542 3.03634 5.36548 3.28032C3.80432 4.55143 3.04897 6.22775 3.09967 8.30955C3.14611 10.4567 4.03804 12.3366 5.77545 13.949C7.49071 15.5349 9.4676 16.3276 11.706 16.3275C13.2866 16.3244 14.6405 15.9196 15.7682 15.1132C17.1407 13.7819 17.8229 12.1944 17.8151 10.35C17.8192 10.3042 17.8192 10.2603 17.8151 10.2186C17.8192 9.85143 17.7879 9.47588 17.7212 9.09194C17.692 8.82067 17.6398 8.55779 17.5647 8.30329C17.527 8.09886 17.4708 7.90058 17.3956 7.70867C17.3412 7.5418 17.2809 7.37906 17.2141 7.22046C16.5881 5.64741 15.472 4.36628 13.8654 3.37734C12.4258 2.47602 10.9299 2.03375 9.3776 2.0504ZM16.4911 16.991C16.4442 17.0225 16.3972 17.0538 16.3503 17.0849C15.0108 17.9738 13.4168 18.4349 11.5683 18.4683C8.7851 18.5017 6.33565 17.5377 4.22005 15.5764C2.19622 13.657 1.13842 11.3996 1.04666 8.80402C1.03415 8.27825 1.06131 7.77339 1.12803 7.28931C1.25547 6.40902 1.51522 5.5912 1.9073 4.83572C1.97302 4.70941 2.043 4.58535 2.11698 4.4633C2.5073 3.80684 3.0039 3.2007 3.60666 2.64502C3.63795 2.61635 3.66825 2.58818 3.69741 2.56052C3.71569 2.54487 3.73334 2.52922 3.75062 2.51357C5.41142 1.04055 7.43526 0.337517 9.822 0.40424C12.2589 0.437664 14.433 1.25749 16.3442 2.86409C17.7169 3.99073 18.7017 5.30303 19.2985 6.80109C19.5656 7.46043 19.7554 8.1572 19.8681 8.89165C19.9516 9.32153 19.9932 9.74289 19.9932 10.156C20.0726 12.1339 19.4612 13.899 18.1594 15.4512C17.6682 16.0407 17.1278 16.5425 16.5383 16.9566L16.4911 16.991Z" fill="url(#paint1_linear_744_9356)"/>
<path fill-rule="evenodd" clip-rule="evenodd" d="M16.491 16.9912L15.6804 17.5766C15.6133 17.6283 15.5455 17.6795 15.4769 17.7299C13.8658 18.9041 11.9744 19.4716 9.80313 19.4324C7.18255 19.3782 4.91061 18.4393 2.98692 16.6158C1.29319 14.9962 0.312507 13.0934 0.0451165 10.9074C0.0423625 10.8853 0.0392329 10.8634 0.0357278 10.8417L0.0169504 10.6509C-0.0376294 9.93615 0.0396085 9.07852 0.248539 8.07843L0.264187 8.00019C0.345931 7.65907 0.462852 7.34611 0.614699 7.06132L1.90721 4.83594C1.51514 5.59142 1.25539 6.40924 1.12795 7.28953C1.06123 7.77361 1.03406 8.27847 1.04658 8.80424C1.13834 11.3997 2.19614 13.6572 4.21997 15.5766C6.33556 17.5379 8.78502 18.5018 11.5682 18.4685C13.4168 18.4351 15.0107 17.974 16.3502 17.0851C16.3971 17.0541 16.4441 17.0228 16.491 16.9912Z" fill="url(#paint2_linear_744_9356)"/>
<path fill-rule="evenodd" clip-rule="evenodd" d="M9.37744 2.0506C8.82664 2.03808 8.25493 2.09441 7.66244 2.21959C7.62476 2.2276 7.17197 2.36743 6.3042 2.63896C6.75523 2.33827 7.17034 2.13171 7.54977 2.0193C7.76884 1.9522 7.99417 1.89374 8.22576 1.84404C8.81825 1.71886 9.38996 1.66253 9.94077 1.67505C11.493 1.6584 12.989 2.10067 14.4286 3.00199C16.0352 3.99093 17.1513 5.27193 17.7772 6.84511C17.8441 7.00371 17.9045 7.16645 17.9587 7.33332C18.034 7.52523 18.0902 7.72352 18.1279 7.92794C18.1622 8.04449 18.1915 8.16241 18.2154 8.28158C18.2454 8.42467 18.2684 8.56963 18.2843 8.71659C18.3511 9.10053 18.3824 9.47608 18.3782 9.84324C18.3824 9.88493 18.3824 9.92874 18.3782 9.97468C18.3831 11.123 18.1202 12.1714 17.5895 13.1199C17.2441 13.7394 16.785 14.3163 16.2124 14.8506L15.768 15.1134C17.14 13.6623 17.8223 12.0746 17.8149 10.3502C17.819 10.3044 17.819 10.2605 17.8149 10.2188C17.819 9.85163 17.7877 9.47608 17.721 9.09214C17.6919 8.82087 17.6397 8.55799 17.5645 8.30349C17.5269 8.09907 17.4707 7.90078 17.3954 7.70887C17.3411 7.542 17.2808 7.37926 17.2139 7.22066C16.588 5.64761 15.4719 4.36648 13.8653 3.37754C12.4257 2.47622 10.9297 2.03395 9.37744 2.0506Z" fill="#AF5118"/>
<path fill-rule="evenodd" clip-rule="evenodd" d="M16.7822 16.3963C16.7738 16.4214 16.7592 16.4444 16.7383 16.4653C16.1876 16.9743 15.4823 17.3457 14.6228 17.5793C14.5977 17.5876 14.5747 17.5876 14.5538 17.5793C14.5289 17.5711 14.508 17.5607 14.4912 17.548C14.4746 17.5314 14.4642 17.5105 14.4599 17.4854L14.2346 16.534C14.2263 16.5006 14.2305 16.4715 14.2472 16.4464C14.2598 16.4173 14.2827 16.3963 14.3161 16.3838C14.9963 16.0959 15.6013 15.7121 16.1312 15.2321C16.152 15.2071 16.1771 15.1946 16.2063 15.1946C16.2314 15.1905 16.2564 15.1967 16.2816 15.2134C16.3065 15.23 16.3254 15.2509 16.3378 15.276L16.7697 16.3212C16.7822 16.3463 16.7864 16.3713 16.7822 16.3963ZM16.7196 16.4464C16.7321 16.4296 16.7425 16.411 16.7509 16.3901C16.755 16.3693 16.753 16.3484 16.7445 16.3275L16.3128 15.2822C16.3001 15.2654 16.2856 15.2509 16.2688 15.2383C16.248 15.2258 16.2271 15.2216 16.2062 15.2258C16.1854 15.2299 16.1667 15.2383 16.1499 15.2508C15.62 15.7389 15.0107 16.1271 14.3222 16.415C14.3013 16.4233 14.2847 16.438 14.2721 16.4588C14.2639 16.4797 14.2639 16.5028 14.2721 16.5278L14.4912 17.4792C14.4955 17.496 14.5039 17.5126 14.5163 17.5293C14.5289 17.5375 14.5434 17.5459 14.5602 17.5542C14.5768 17.5584 14.5936 17.5584 14.6101 17.5542C15.4658 17.3164 16.1688 16.9472 16.7196 16.4464Z" fill="white" fill-opacity="0.6235"/>
<path fill-rule="evenodd" clip-rule="evenodd" d="M16.6945 16.4154C16.707 16.4071 16.7153 16.3966 16.7195 16.3841C16.7195 16.3673 16.7174 16.3549 16.7131 16.3465L16.275 15.3011C16.2709 15.2845 16.2625 15.2741 16.2501 15.2698C16.2374 15.2616 16.225 15.2573 16.2124 15.2573C16.1958 15.2573 16.1832 15.2636 16.1748 15.2761C15.6407 15.7642 15.0295 16.1545 14.341 16.4466C14.3243 16.4507 14.3139 16.4611 14.3097 16.4779C14.2971 16.4861 14.2951 16.5009 14.3034 16.5217L14.5224 17.4732C14.5224 17.4815 14.5288 17.4918 14.5412 17.5045C14.5495 17.5127 14.558 17.519 14.5662 17.5231C14.5788 17.5231 14.5913 17.5231 14.6038 17.5231C15.451 17.2854 16.1478 16.9161 16.6945 16.4154ZM16.7195 16.4467C16.1687 16.9474 15.4656 17.3167 14.6101 17.5546C14.5934 17.5588 14.5766 17.5588 14.5601 17.5546C14.5433 17.5463 14.5288 17.5379 14.5162 17.5296C14.5037 17.5129 14.4954 17.4962 14.4911 17.4796L14.2721 16.5282C14.2638 16.5031 14.2638 16.4801 14.2721 16.4592C14.2847 16.4384 14.3012 16.4238 14.3221 16.4154C15.0106 16.1275 15.6198 15.7394 16.1498 15.2512C16.1666 15.2385 16.1854 15.2303 16.2061 15.2262C16.227 15.222 16.248 15.2262 16.2687 15.2387C16.2855 15.2513 16.3 15.2658 16.3127 15.2826L16.7444 16.3279C16.7528 16.3488 16.7549 16.3697 16.7508 16.3905C16.7424 16.4113 16.732 16.4299 16.7195 16.4467Z" fill="white" fill-opacity="0.749"/>
<path fill-rule="evenodd" clip-rule="evenodd" d="M16.7823 16.3965C16.7864 16.3716 16.7823 16.3466 16.7696 16.3214L16.3378 15.2761C16.3252 15.2511 16.3065 15.2302 16.2815 15.2135C16.2565 15.1968 16.2315 15.1905 16.2063 15.1948C16.1771 15.1948 16.152 15.2073 16.1312 15.2323C15.6013 15.7123 14.9963 16.0961 14.316 16.384C14.2826 16.3965 14.2597 16.4174 14.2472 16.4466C14.2304 16.4716 14.2263 16.5009 14.2346 16.5342L14.4599 17.4856C14.4641 17.5107 14.4745 17.5316 14.4912 17.5482C14.508 17.5609 14.5289 17.5712 14.5538 17.5795C14.5747 17.5878 14.5977 17.5878 14.6227 17.5795C15.4823 17.3459 16.1875 16.9745 16.7382 16.4655C16.7594 16.4445 16.7739 16.4216 16.7823 16.3965ZM16.8136 16.4028C16.8052 16.4362 16.7905 16.4632 16.7696 16.484C16.2104 16.9974 15.497 17.373 14.629 17.6107C14.5998 17.6189 14.5705 17.6189 14.5414 17.6107C14.5122 17.6065 14.4892 17.592 14.4725 17.5669C14.4516 17.546 14.4371 17.5209 14.4286 17.4916L14.2033 16.5402C14.195 16.5027 14.2011 16.4673 14.222 16.4338C14.2346 16.3961 14.2616 16.3712 14.3033 16.3586C14.9793 16.0707 15.5801 15.6847 16.1059 15.2006C16.1309 15.1756 16.1622 15.1611 16.1998 15.1568C16.2374 15.1526 16.2728 15.161 16.3062 15.1819C16.3354 15.1985 16.3563 15.2257 16.3688 15.2631L16.8069 16.3085C16.8157 16.3382 16.8178 16.3695 16.8136 16.4028Z" fill="white" fill-opacity="0.498"/>
<path fill-rule="evenodd" clip-rule="evenodd" d="M16.6758 16.3965C16.6799 16.3882 16.684 16.382 16.6884 16.3778V16.3591L16.2503 15.3138C16.246 15.3055 16.2398 15.2991 16.2315 15.295C16.2274 15.2909 16.2232 15.2887 16.219 15.2887C16.2106 15.2887 16.2022 15.2929 16.1939 15.3013C15.6598 15.7895 15.0464 16.1818 14.3537 16.478C14.3412 16.478 14.335 16.4821 14.335 16.4905C14.3267 16.4948 14.3246 16.5031 14.3287 16.5155L14.554 17.4671C14.554 17.4712 14.5562 17.4753 14.5604 17.4796C14.5646 17.4837 14.5708 17.4858 14.5791 17.4858C14.5832 17.4858 14.5896 17.4858 14.5979 17.4858C15.4365 17.2561 16.1292 16.893 16.6758 16.3965ZM16.6945 16.4153C16.1479 16.916 15.451 17.2853 14.604 17.5231C14.5915 17.5231 14.5789 17.5231 14.5664 17.5231C14.5582 17.519 14.5497 17.5127 14.5414 17.5045C14.5289 17.4918 14.5226 17.4815 14.5226 17.4732L14.3035 16.5217C14.2953 16.5009 14.2973 16.4862 14.3099 16.4779C14.3141 16.4611 14.3245 16.4507 14.3412 16.4466C15.0297 16.1545 15.641 15.7643 16.175 15.2761C16.1833 15.2635 16.1959 15.2573 16.2126 15.2573C16.2252 15.2573 16.2376 15.2615 16.2503 15.2698C16.2628 15.2741 16.2711 15.2845 16.2752 15.3011L16.7133 16.3465C16.7176 16.3548 16.7197 16.3673 16.7197 16.3841C16.7153 16.3965 16.7071 16.407 16.6945 16.4153Z" fill="white" fill-opacity="0.8745"/>
<path fill-rule="evenodd" clip-rule="evenodd" d="M16.6757 16.3966C16.1291 16.8932 15.4365 17.2562 14.5976 17.4857C14.5894 17.4857 14.583 17.4857 14.5789 17.4857C14.5706 17.4857 14.5643 17.4835 14.5602 17.4794C14.556 17.4753 14.5538 17.4711 14.5538 17.4669L14.3285 16.5154C14.3244 16.5029 14.3264 16.4946 14.3348 16.4903C14.3348 16.4821 14.3411 16.4778 14.3535 16.4778C15.0462 16.1816 15.6597 15.7893 16.1937 15.3011C16.202 15.2928 16.2104 15.2886 16.2188 15.2886C16.2229 15.2886 16.227 15.2907 16.2313 15.2948C16.2395 15.299 16.2458 15.3054 16.2501 15.3136L16.6882 16.3589V16.3777C16.6839 16.3819 16.6798 16.3882 16.6757 16.3966Z" fill="white"/>
<path fill-rule="evenodd" clip-rule="evenodd" d="M16.8448 16.4092C16.8364 16.4508 16.8176 16.4863 16.7885 16.5156C16.2252 17.0246 15.5095 17.4024 14.6416 17.6485C14.604 17.6527 14.5686 17.6527 14.5352 17.6485C14.4976 17.636 14.4663 17.6172 14.4413 17.5923C14.4163 17.5672 14.4017 17.5359 14.3974 17.4984L14.172 16.5469C14.1595 16.501 14.1658 16.4571 14.1908 16.4154C14.2116 16.3737 14.2429 16.3424 14.2847 16.3215C14.9649 16.0377 15.5657 15.6581 16.0872 15.1824C16.1206 15.1489 16.1582 15.1302 16.1999 15.126C16.2416 15.1219 16.2812 15.1302 16.3188 15.1511C16.3563 15.176 16.3814 15.2073 16.3939 15.245L16.832 16.2902C16.8448 16.3278 16.8491 16.3673 16.8448 16.4092ZM16.8135 16.4029C16.8176 16.3695 16.8156 16.3382 16.8071 16.309L16.369 15.2636C16.3565 15.2261 16.3356 15.1989 16.3064 15.1824C16.273 15.1615 16.2375 15.1532 16.2 15.1573C16.1624 15.1615 16.1311 15.176 16.1061 15.2011C15.5803 15.6852 14.9795 16.0712 14.3035 16.3591C14.2618 16.3717 14.2346 16.3966 14.2222 16.4343C14.2013 16.4677 14.1951 16.5032 14.2035 16.5407L14.4288 17.4921C14.4372 17.5213 14.4518 17.5464 14.4727 17.5674C14.4894 17.5924 14.5123 17.6069 14.5416 17.6112C14.5707 17.6194 14.6 17.6194 14.6292 17.6112C15.4972 17.3734 16.2106 16.9979 16.7698 16.4845C16.7906 16.4635 16.8051 16.4363 16.8135 16.4029Z" fill="white" fill-opacity="0.3725"/>
<path fill-rule="evenodd" clip-rule="evenodd" d="M16.876 16.4154C16.8634 16.4613 16.8426 16.5011 16.8134 16.5344C16.2459 17.0559 15.5239 17.4378 14.6477 17.6797C14.606 17.688 14.5643 17.688 14.5225 17.6797C14.4849 17.663 14.4516 17.6401 14.4223 17.6108C14.393 17.5815 14.3724 17.5482 14.3597 17.5107L14.1407 16.5593C14.124 16.5049 14.1303 16.4527 14.1594 16.4028C14.1802 16.3485 14.2179 16.313 14.272 16.2963C14.9438 16.0083 15.5406 15.6265 16.0622 15.151C16.0998 15.1218 16.1435 15.1029 16.1937 15.0946C16.2436 15.0905 16.2917 15.1009 16.3375 15.1259C16.3793 15.151 16.4106 15.1885 16.4314 15.2385L16.8633 16.2776C16.8844 16.3237 16.8886 16.3696 16.876 16.4154ZM16.8447 16.4092C16.8489 16.3674 16.8447 16.3278 16.8321 16.2903L16.394 15.245C16.3814 15.2073 16.3564 15.176 16.3189 15.1511C16.2813 15.1302 16.2416 15.1219 16.1999 15.1261C16.1582 15.1302 16.1206 15.1491 16.0873 15.1824C15.5658 15.6581 14.9649 16.0378 14.2848 16.3215C14.2429 16.3425 14.2116 16.3738 14.1909 16.4154C14.1658 16.4571 14.1596 16.5011 14.1721 16.5469L14.3974 17.4984C14.4017 17.536 14.4162 17.5672 14.4414 17.5923C14.4664 17.6172 14.4977 17.6361 14.5352 17.6485C14.5687 17.6527 14.6041 17.6527 14.6416 17.6485C15.5097 17.4024 16.2252 17.0247 16.7885 16.5156C16.8177 16.4863 16.8364 16.4509 16.8447 16.4092Z" fill="white" fill-opacity="0.2471"/>
<path fill-rule="evenodd" clip-rule="evenodd" d="M16.9074 16.4278C16.899 16.4778 16.874 16.5238 16.8321 16.5656C16.2647 17.083 15.5386 17.4649 14.6541 17.7109C14.6081 17.7235 14.5643 17.7235 14.5225 17.7109C14.4726 17.6984 14.4308 17.6755 14.3973 17.642C14.3639 17.6045 14.3431 17.5628 14.3347 17.5169L14.1094 16.5655C14.0928 16.5029 14.099 16.4444 14.1282 16.3902C14.1574 16.3318 14.2033 16.2901 14.2659 16.265C14.9336 15.9812 15.526 15.6037 16.0435 15.1321C16.0852 15.0904 16.1333 15.0674 16.1875 15.0633C16.2458 15.0591 16.3021 15.0715 16.3565 15.1008C16.4023 15.13 16.4378 15.1717 16.4629 15.226L16.8947 16.2713C16.9158 16.3214 16.9199 16.3736 16.9074 16.4278ZM16.8761 16.4153C16.8886 16.3694 16.8843 16.3235 16.8634 16.2775L16.4316 15.2384C16.4108 15.1885 16.3795 15.1509 16.3377 15.1259C16.2919 15.1008 16.2438 15.0904 16.1938 15.0946C16.1438 15.1028 16.1 15.1217 16.0624 15.1509C15.5408 15.6266 14.944 16.0084 14.2722 16.2962C14.218 16.313 14.1804 16.3484 14.1596 16.4027C14.1304 16.4527 14.1242 16.5049 14.1408 16.5592L14.3599 17.5106C14.3726 17.5482 14.3933 17.5815 14.4225 17.6107C14.4517 17.64 14.4851 17.663 14.5226 17.6796C14.5645 17.688 14.6061 17.688 14.6478 17.6796C15.5241 17.4376 16.246 17.0558 16.8136 16.5343C16.8428 16.5009 16.8636 16.4611 16.8761 16.4153Z" fill="white" fill-opacity="0.1216"/>
<path fill-rule="evenodd" clip-rule="evenodd" d="M5.93501 9.4989L5.8599 9.67416L5.57824 9.68668L5.89746 9.09206L7.3308 9.02947L6.93022 9.61157H6.72367L6.70489 9.4989H5.93501ZM5.89746 8.61636L5.69091 9.09832L3.96338 8.73529L4.1136 8.17822L5.89746 8.61636ZM5.97883 10.419L6.82381 10.4003L6.611 10.7759H6.00386L5.92875 10.9011L5.64083 10.9136L5.97883 10.419ZM6.14782 13.1104L7.2244 13.0605L6.82381 13.4924L5.63457 13.5173L6.14782 13.1104ZM11.1364 13.6738L12.6949 13.6174L14.7855 11.458L14.4224 12.3343L12.5009 14.187L10.7483 14.2559L11.1364 13.6738Z" fill="#B87C0E"/>
<path fill-rule="evenodd" clip-rule="evenodd" d="M6.9301 9.61142L7.33069 9.02932L7.83142 11.7333L7.31817 12.2027L6.9301 9.61142ZM5.89734 9.09191L5.57812 9.68653L5.69079 9.09817L5.89734 8.61621V9.09191ZM5.85979 9.67401L5.9349 9.49875L5.97871 10.4188L5.64072 10.9133L5.68453 10.037L5.85979 9.67401ZM5.92864 10.9008L6.00375 10.7756L6.14771 13.1103L5.63446 13.5171L5.70331 11.2765L5.92864 10.9008Z" fill="#AF5118"/>
<path fill-rule="evenodd" clip-rule="evenodd" d="M7.83161 11.7334C9.00833 12.3511 10.1099 12.9979 11.1364 13.6737L10.7484 14.2558L7.31836 12.2028L7.83161 11.7334Z" fill="#C6691E"/>
<path fill-rule="evenodd" clip-rule="evenodd" d="M16.8259 7.53963L14.679 8.58491L14.6916 9.27341L14.7855 11.4579L12.6948 13.6173L11.1363 13.6735C10.1098 12.9976 9.00818 12.3508 7.83146 11.7331L7.33073 9.02918L5.89738 9.0919V8.6162L4.11353 8.17806L10.5229 3.74658L16.832 7.53963H16.8259V7.53963Z" fill="url(#paint3_radial_744_9356)"/>
<path fill-rule="evenodd" clip-rule="evenodd" d="M6.00391 10.7754H6.87393L7.22444 13.06L6.14787 13.1101L6.00391 10.7754Z" fill="url(#paint4_radial_744_9356)"/>
<path fill-rule="evenodd" clip-rule="evenodd" d="M6.70493 9.49854L6.82386 10.3999L5.97887 10.4186L5.93506 9.49854H6.70493Z" fill="url(#paint5_radial_744_9356)"/>
<path fill-rule="evenodd" clip-rule="evenodd" d="M14.6915 9.27334L14.679 8.58483L16.8258 7.53955L16.613 8.25935L14.6915 9.27334Z" fill="#B87C0E"/>
<path fill-rule="evenodd" clip-rule="evenodd" d="M15.7901 17.4041C15.8278 17.3899 15.8653 17.3754 15.9028 17.3601C15.8509 17.3897 15.7987 17.419 15.7463 17.4478C14.5395 18.0995 13.1469 18.4395 11.5683 18.468C8.7851 18.5014 6.33565 17.5374 4.22005 15.5762C2.19622 13.6567 1.13842 11.3993 1.04666 8.80375C1.03415 8.27798 1.06131 7.77312 1.12803 7.28904C1.25547 6.40875 1.51635 5.59093 1.91043 4.83545C1.62964 5.80737 1.45226 6.73473 1.3784 7.61764C1.24846 9.71709 1.79513 11.6291 3.0183 13.3542C4.63403 15.4193 6.56598 16.8443 8.81427 17.6292C11.1784 18.3273 13.5068 18.2501 15.7995 17.3974L15.7901 17.4041Z" fill="white"/>
</g>
<defs>
<radialGradient id="paint0_radial_744_9356" cx="0" cy="0" r="1" gradientUnits="userSpaceOnUse" gradientTransform="translate(9.15842 10.4065) scale(9.21474)">
<stop offset="0.7686" stop-color="#FFAB0F" stop-opacity="0"/>
<stop offset="0.8431" stop-color="#EC8608"/>
</radialGradient>
<linearGradient id="paint1_linear_744_9356" x1="3.23709" y1="11.9922" x2="17.9311" y2="6.82391" gradientUnits="userSpaceOnUse">
<stop stop-color="#FFCC00"/>
<stop offset="0.0588" stop-color="#FFFF33"/>
<stop offset="0.1373" stop-color="#FFFF7A"/>
<stop offset="0.2157" stop-color="#FFFFCC"/>
<stop offset="0.3137" stop-color="#FDF7B8"/>
<stop offset="0.3804" stop-color="#F6DE7C"/>
<stop offset="0.4431" stop-color="#F6DF80"/>
<stop offset="0.5373" stop-color="#F9E8A3"/>
<stop offset="0.6353" stop-color="#FAEAAB"/>
<stop offset="0.7451" stop-color="#EDC501"/>
<stop offset="0.8392" stop-color="#EFC90C"/>
<stop offset="0.8902" stop-color="#FCE349"/>
</linearGradient>
<linearGradient id="paint2_linear_744_9356" x1="11.3226" y1="18.8233" x2="1.21152" y2="6.3734" gradientUnits="userSpaceOnUse">
<stop offset="0.149" stop-color="#FFCC00"/>
<stop offset="0.2824" stop-color="#FFFF00"/>
<stop offset="0.4039" stop-color="#FF9900"/>
<stop offset="0.4902" stop-color="#C27C07"/>
<stop offset="0.5765" stop-color="#AE6809"/>
<stop offset="0.6667" stop-color="#D68A0C"/>
<stop offset="0.7686" stop-color="#FFCC00"/>
<stop offset="1" stop-color="#FDB934"/>
</linearGradient>
<radialGradient id="paint3_radial_744_9356" cx="0" cy="0" r="1" gradientUnits="userSpaceOnUse" gradientTransform="translate(10.5229 11.1199) scale(7.25592 7.25592)">
<stop offset="0.0902" stop-color="#FFFF7B"/>
<stop offset="0.4392" stop-color="#FFFF4F"/>
<stop offset="0.7922" stop-color="#FCE349"/>
<stop offset="0.9569" stop-color="#FCDE32"/>
</radialGradient>
<radialGradient id="paint4_radial_744_9356" cx="0" cy="0" r="1" gradientUnits="userSpaceOnUse" gradientTransform="translate(6.33567 12.9222) scale(2.26268)">
<stop offset="0.0902" stop-color="#FFFF7B"/>
<stop offset="0.4392" stop-color="#FFFF4F"/>
<stop offset="0.7922" stop-color="#FCE349"/>
<stop offset="0.9569" stop-color="#FCDE32"/>
</radialGradient>
<radialGradient id="paint5_radial_744_9356" cx="0" cy="0" r="1" gradientUnits="userSpaceOnUse" gradientTransform="translate(6.28555 10.187) scale(0.851244)">
<stop offset="0.0902" stop-color="#FFFF7B"/>
<stop offset="0.4392" stop-color="#FFFF4F"/>
<stop offset="0.7922" stop-color="#FCE349"/>
<stop offset="0.9569" stop-color="#FCDE32"/>
</radialGradient>
<clipPath id="clip0_744_9356">
<rect width="20" height="20" fill="white"/>
</clipPath>
</defs>
</svg>
