<svg width="18" height="21" viewBox="0 0 18 21" fill="none" xmlns="http://www.w3.org/2000/svg">
<path fill-rule="evenodd" clip-rule="evenodd" d="M5.42364 0.012979C4.35513 0.195069 3.40439 1.19628 3.24198 2.31047L3.19943 2.60234L2.6541 2.62798C2.35416 2.64207 2.01014 2.68106 1.8896 2.71462C0.996434 2.96335 0.257281 3.77968 0.0590727 4.73623C0.0094101 4.97583 0.000610608 6.02939 7.90686e-06 11.8016C-0.000393894 15.8312 0.0145531 18.6674 0.0368129 18.7874C0.212119 19.7327 0.958022 20.5917 1.87698 20.9068L2.14896 21H7.39246H12.636L12.9079 20.9068C13.8683 20.5776 14.6128 19.6869 14.7575 18.694L14.8002 18.4011L15.3454 18.3802C15.7576 18.3644 15.9523 18.3377 16.144 18.2707C17.0476 17.955 17.789 17.0936 17.9625 16.158C17.9845 16.0394 18 13.7455 18 10.6075V5.2592L15.7587 2.63229L13.5174 0.00541932L9.52072 0.000653428C7.32259 -0.00197603 5.47888 0.00357048 5.42364 0.012979ZM12.223 2.85058C12.2357 4.31929 12.2411 4.41572 12.3246 4.6686C12.457 5.06926 12.6839 5.43541 12.9989 5.75674C13.3207 6.08493 13.6048 6.26986 14.0288 6.42717C14.319 6.53482 14.342 6.53671 15.5197 6.55072L16.7159 6.56497L16.705 11.3173L16.6941 16.0698L16.5823 16.2869C16.433 16.5765 16.1931 16.8145 15.9166 16.947L15.6896 17.0558H10.6069H5.52409L5.29715 16.947C5.02067 16.8145 4.78071 16.5765 4.63144 16.2869L4.51958 16.0698V9.18798V2.3062L4.61578 2.12131C4.82531 1.71863 5.05366 1.51107 5.43569 1.37611C5.63 1.30745 5.8747 1.30219 8.92714 1.30096L12.2096 1.29961L12.223 2.85058ZM15.2164 3.4155L16.699 5.22325L15.6795 5.23422C14.7804 5.24388 14.6425 5.23677 14.5118 5.17378C14.1507 4.99971 13.7339 4.35865 13.5789 3.73913C13.5102 3.46414 13.5 3.28575 13.5012 2.37152L13.5025 1.32015L13.6182 1.46395C13.6818 1.54304 14.401 2.42123 15.2164 3.4155ZM3.21373 9.94247C3.21373 13.492 3.22908 16.0387 3.25122 16.158C3.42436 17.0916 4.14756 17.9339 5.06969 18.2762L5.32319 18.3703L9.41484 18.3818L13.5065 18.3933L13.4782 18.5668C13.4109 18.9798 13.0982 19.3866 12.7022 19.5765L12.4752 19.6853H7.39246H2.30968L2.08274 19.5765C1.79377 19.4379 1.54706 19.1857 1.41157 18.8902L1.30518 18.6581V11.7969V4.93565L1.39201 4.74354C1.43974 4.63791 1.55425 4.46782 1.64639 4.36555C1.93146 4.04936 2.23474 3.94517 2.90234 3.9342L3.21373 3.92906V9.94247ZM7.50259 9.2462C7.30402 9.31933 7.24235 9.37545 7.14403 9.5725C6.99436 9.87242 7.09171 10.2013 7.39206 10.4103L7.52489 10.5027H10.6069H13.6888L13.8217 10.4103C14.0208 10.2717 14.1119 10.1208 14.1299 9.89974C14.1499 9.65471 14.0295 9.4181 13.8212 9.29299C13.6831 9.21 13.6274 9.20836 10.6671 9.19952C8.21667 9.19221 7.62542 9.20092 7.50259 9.2462ZM7.43127 12.5672C6.98708 12.7965 6.95454 13.3688 7.36775 13.6843C7.4776 13.7681 7.51015 13.769 10.6069 13.769C13.7036 13.769 13.7361 13.7681 13.846 13.6843C14.028 13.5453 14.1128 13.3967 14.1299 13.1866C14.1519 12.9173 14.0261 12.693 13.7825 12.5672L13.6033 12.4748H10.6069H7.6104L7.43127 12.5672Z" fill="#F5F5F5"/>
</svg>
