<svg width="20" height="20" viewBox="0 0 20 20" fill="none" xmlns="http://www.w3.org/2000/svg">
<g clip-path="url(#clip0_744_9394)">
<path d="M19.9999 13.2074L16.0355 19.016L7.82465 19.0484L0.86966 13.6985L0 5.73643L4.39117 0.799805L12.1151 1.1369L18.5417 5.91395L19.9999 13.2074Z" fill="#66FBFF"/>
<path d="M16.0355 19.016L14.9914 13.4563L17.5643 10.2779L19.9999 13.2072L16.0355 19.016ZM4.39117 0.799805L12.115 1.13702L12.6317 2.86791L8.06142 2.62897L4.39117 0.799805ZM0 5.73643L5.41884 6.09556L6.46711 10.6345L0.86966 13.6985L0 5.73643Z" fill="#1A4499"/>
<path d="M14.9914 13.4561L16.0356 19.0159L7.82471 19.0483L10.4054 13.4649L14.9914 13.4561ZM12.6319 2.86761L12.1152 1.13672L18.5417 5.91377L16.934 5.98061L12.6319 2.86761Z" fill="#171872"/>
<path d="M14.9915 13.4564L10.4052 13.4653L6.46709 10.6346L5.41895 6.09562L8.06153 2.62891L12.6319 2.86785L16.9341 5.98085L17.5646 10.2781L14.9915 13.4564Z" fill="#0091FB"/>
<path d="M10.4051 13.4652L7.82453 19.0484L0.869539 13.6985L6.46699 10.6345L10.4051 13.4652ZM0 5.73643L4.39117 0.799805L8.06142 2.62897L5.41884 6.09556L0 5.73643Z" fill="#1164AF"/>
<path d="M13.9633 5.75847L18.5416 5.91395L15.3619 8.4874L13.9633 5.75847ZM7.04805 6.17421L4.39114 0.799805L9.96775 4.50064L7.04805 6.17421ZM8.33911 13.0478L0.869629 13.6985L6.00003 9.78954L8.33911 13.0478Z" fill="#3333FF"/>
<path d="M11.2453 9.2816L12.6762 13.9574L8.33911 13.0474L11.2453 9.2816L13.9634 5.75828L15.3619 8.48721L11.2453 9.2816ZM13.9634 5.75828L9.96799 4.50046L12.1152 1.13672L13.9634 5.75828Z" fill="#10104E"/>
<path d="M9.96796 4.50049L13.9634 5.75831L11.2453 9.28163L8.33921 13.0476L6 9.78938L7.04814 6.17405L9.96796 4.50049Z" fill="#0000EA"/>
<path d="M15.3619 8.4873L20 13.2073L15.027 11.7919L12.6761 13.9574L11.2452 9.28169L15.3619 8.4873ZM5.99994 9.78944L0 5.73633L7.0482 6.17399L5.99994 9.78944Z" fill="#1E1E91"/>
<path d="M15.0269 11.792L16.0356 19.016L12.6762 13.9575L7.82471 19.0484L8.3392 13.0478L12.6762 13.9575L15.0269 11.792Z" fill="#0000FF"/>
<path d="M10.4052 13.4653L6.46709 10.6346L5.41895 6.09562L8.06153 2.62891L12.6319 2.86785L16.9341 5.98085L17.5646 10.2781L14.9915 13.4564L10.4052 13.4653Z" fill="url(#paint0_linear_744_9394)"/>
<path d="M10.4051 13.4655L7.82462 19.0487L0.869629 13.6987L6.46695 10.6348L10.4051 13.4655Z" fill="url(#paint1_linear_744_9394)"/>
<path d="M6.46699 10.6344L0.869659 13.6984L0 5.73633L5.41884 6.09546L6.46699 10.6344Z" fill="url(#paint2_linear_744_9394)"/>
<path d="M16.9341 5.98073L16.2763 5.50489L18.5419 5.91389L16.9341 5.98073ZM5.89298 6.12983L5.41895 6.0955L5.84637 5.53476L8.05358 2.63818L8.37562 2.84907L5.89298 6.12983Z" fill="#33E6FF"/>
<path d="M14.8132 13.0312L17.2032 9.99044L17.5646 10.2782L14.9916 13.4566L14.8132 13.0312ZM6.36966 10.2093L5.41895 6.0957L5.89298 6.13003L6.85995 10.3999L6.46721 10.6346L6.36966 10.2093Z" fill="#66FBFF"/>
<path d="M14.2131 13.459L11.0851 13.4645L10.405 13.4654L10.5851 13.0503L14.8131 13.0312L14.9913 13.4565L14.2131 13.459Z" fill="#33FFFF"/>
<path d="M14.9914 13.4561L16.0356 19.0158L14.2131 13.4586L14.9914 13.4561Z" fill="#1CC0FF"/>
<path d="M12.0743 2.83226L12.1151 1.1369L12.6318 2.86779L12.0743 2.83226ZM8.06142 2.62885L4.39117 0.799805L9.0956 2.70027L8.06142 2.62885ZM5.41884 6.09556L0 5.73643L5.84627 5.53482L5.41884 6.09556Z" fill="#0060FF"/>
<path d="M10.4052 13.4651L6.46708 10.6344L6.85981 10.3996L10.5851 13.05L10.4052 13.4651ZM6.46708 10.6344L0.869629 13.6983L6.36952 10.209L6.46708 10.6344Z" fill="#FFFFCC"/>
<path d="M11.0852 13.4644L7.82471 19.0486L7.91058 18.8627L7.94815 18.7803L10.4051 13.4653L11.0852 13.4644Z" fill="#3333CC"/>
<path d="M7.91058 18.8627L7.94816 18.7803M7.91058 18.8627L7.74414 19.1966" stroke="#66FF00" stroke-width="0.1" stroke-miterlimit="3" stroke-linecap="round" stroke-linejoin="round"/>
<path d="M17.2632 8.34479L17.2109 7.55859L18.9459 8.14066L19.0494 8.85146L17.2632 8.34479Z" fill="url(#paint3_linear_744_9394)"/>
<path d="M17.2108 7.55854L17.2631 8.34474L17.5646 10.2781L8.06152 2.62891L12.6319 2.86785L16.9341 5.98085L17.2108 7.55854Z" fill="url(#paint4_linear_744_9394)"/>
</g>
<defs>
<linearGradient id="paint0_linear_744_9394" x1="8.99783" y1="11.3316" x2="13.9221" y2="5.0324" gradientUnits="userSpaceOnUse">
<stop stop-color="#6FFFFF" stop-opacity="0"/>
<stop offset="1" stop-color="white"/>
</linearGradient>
<linearGradient id="paint1_linear_744_9394" x1="2.11331" y1="11.9068" x2="9.5479" y2="16.2398" gradientUnits="userSpaceOnUse">
<stop stop-color="#6FFFFF" stop-opacity="0"/>
<stop offset="1" stop-color="white" stop-opacity="0.7608"/>
</linearGradient>
<linearGradient id="paint2_linear_744_9394" x1="-0.02028" y1="9.75035" x2="6.12056" y2="9.28343" gradientUnits="userSpaceOnUse">
<stop stop-color="#6FFFFF" stop-opacity="0"/>
<stop offset="1" stop-color="white" stop-opacity="0.6706"/>
</linearGradient>
<linearGradient id="paint3_linear_744_9394" x1="17.3903" y1="7.99294" x2="18.8133" y2="8.48667" gradientUnits="userSpaceOnUse">
<stop stop-color="white" stop-opacity="0.2706"/>
<stop offset="1" stop-color="white"/>
</linearGradient>
<linearGradient id="paint4_linear_744_9394" x1="13.4117" y1="5.77447" x2="14.5373" y2="4.5021" gradientUnits="userSpaceOnUse">
<stop stop-color="white" stop-opacity="0.2706"/>
<stop offset="1" stop-color="white"/>
</linearGradient>
<clipPath id="clip0_744_9394">
<rect width="20" height="20" fill="white"/>
</clipPath>
</defs>
</svg>
