<svg width="32" height="32" viewBox="0 0 32 32" fill="none" xmlns="http://www.w3.org/2000/svg">
<path fill-rule="evenodd" clip-rule="evenodd" d="M3.26883 8.03606C3.17065 8.06003 3.02827 8.1385 2.95237 8.21045C2.67079 8.47726 2.66675 8.51716 2.66675 11.0299C2.66675 13.2948 2.67003 13.3684 2.77947 13.5686C2.93385 13.851 3.12952 13.9544 3.62077 14.0131C3.851 14.0407 4.12128 14.0931 4.22135 14.1295C5.29509 14.5207 5.98987 15.6969 5.80448 16.8096C5.65338 17.7165 5.04596 18.4681 4.22135 18.7685C4.12128 18.805 3.851 18.8573 3.62077 18.8849C3.12828 18.9438 2.93385 19.047 2.77785 19.3325C2.6654 19.5381 2.66368 19.5825 2.67854 21.9484C2.69318 24.2803 2.69711 24.3599 2.80466 24.5079C2.8657 24.5919 2.98251 24.712 3.06423 24.7748C3.21086 24.8873 3.26124 24.8889 6.77519 24.8889H10.3375L10.3644 22.693C10.3903 20.582 10.3956 20.491 10.5028 20.3409C10.6399 20.1488 10.9293 19.9912 11.1449 19.9912C11.3605 19.9912 11.6499 20.1488 11.787 20.3409C11.8942 20.491 11.8996 20.582 11.9254 22.693L11.9524 24.8889H20.8169H29.6814L29.83 24.7748C29.9118 24.712 30.0286 24.5919 30.0896 24.5079C30.1972 24.3599 30.2011 24.2803 30.2157 21.9484C30.2306 19.5825 30.2289 19.5381 30.1164 19.3325C29.9604 19.047 29.766 18.9438 29.2735 18.8849C29.0433 18.8573 28.773 18.805 28.6729 18.7685C27.5992 18.3774 26.9044 17.2011 27.0898 16.0885C27.2409 15.1816 27.8483 14.4299 28.6729 14.1295C28.773 14.0931 29.0433 14.0407 29.2735 14.0131C29.766 13.9543 29.9604 13.851 30.1164 13.5656C30.2289 13.3599 30.2306 13.3155 30.2157 10.9496C30.2011 8.61778 30.1972 8.53819 30.0896 8.39015C30.0286 8.30614 29.9118 8.18604 29.83 8.12328L29.6814 8.00917H20.8169H11.9524L11.9254 10.2051C11.8996 12.316 11.8942 12.407 11.787 12.5572C11.6499 12.7493 11.3605 12.9069 11.1449 12.9069C10.9293 12.9069 10.6399 12.7493 10.5028 12.5572C10.3956 12.407 10.3903 12.316 10.3644 10.2051L10.3375 8.00917L6.89237 8.00081C4.99757 7.99616 3.36696 8.01204 3.26883 8.03606ZM11.5403 14.655C11.6189 14.7033 11.7317 14.8091 11.7909 14.8902C11.892 15.0287 11.8985 15.1238 11.8985 16.449C11.8985 17.7742 11.892 17.8693 11.7909 18.0078C11.6266 18.2329 11.4256 18.3307 11.1273 18.3307C10.8274 18.3307 10.5898 18.1756 10.4432 17.8841C10.3283 17.6557 10.3283 15.2424 10.4432 15.0139C10.5898 14.7224 10.8274 14.5674 11.1273 14.5674C11.2778 14.5674 11.4607 14.6062 11.5403 14.655Z" fill="#FDFDFD"/>
</svg>
