<svg width="24" height="24" viewBox="0 0 24 24" fill="none" xmlns="http://www.w3.org/2000/svg">
<path fill-rule="evenodd" clip-rule="evenodd" d="M11.5197 3.06483C11.1555 3.16133 10.9408 3.28981 10.6405 3.59096C9.85736 4.37619 9.85736 5.55123 10.6405 6.33646C10.945 6.64179 11.1563 6.76668 11.5334 6.86424C12.0071 6.98677 12.3987 6.94368 12.864 6.71775C13.3733 6.47053 13.7638 5.97769 13.8944 5.41743C14.2285 3.98372 12.9251 2.69244 11.5197 3.06483ZM16.1737 3.02437C15.9143 3.11039 15.6988 3.30139 15.5931 3.53889C15.5353 3.66857 15.5296 3.84728 15.5202 5.81684L15.51 7.95407H15.1585C14.8548 7.95407 14.7828 7.94218 14.6296 7.86661C14.532 7.81852 14.3679 7.76311 14.2648 7.74348C14.0205 7.69697 10.0386 7.69605 9.75843 7.74246C9.32703 7.81391 8.94675 8.10654 8.752 8.51696L8.64348 8.74563L8.63353 10.0033L8.62358 11.2611H11.9987H15.3739V10.4918V9.72253L15.9043 9.70564C16.5507 9.6851 16.7082 9.63106 16.9717 9.33948C17.2837 8.99418 17.2696 9.14075 17.2696 6.2478C17.2696 4.1923 17.2606 3.68904 17.2219 3.57826C17.1607 3.40309 16.9649 3.18423 16.7875 3.09269C16.6359 3.01449 16.3121 2.97843 16.1737 3.02437ZM4.48285 12.274C4.27503 12.3838 4.09144 12.6006 4.03638 12.8011C4.01659 12.8732 4.00031 13.0944 4.00021 13.2927L4 13.6533H4.55597H5.11197L5.12118 16.8284L5.13043 20.0035L5.23134 20.2245C5.35948 20.5052 5.65593 20.7913 5.93791 20.9064L6.13913 20.9885L11.913 20.9979C15.9539 21.0044 17.7415 20.9959 17.8687 20.9692C18.2193 20.8957 18.5558 20.6556 18.7332 20.3523C18.9259 20.0227 18.9209 20.118 18.9214 16.758L18.9217 13.6533H19.4609H20L19.9998 13.2927C19.9997 13.0944 19.9834 12.8732 19.9636 12.8011C19.9086 12.6006 19.725 12.3838 19.5171 12.274L19.3312 12.1757H12H4.6688L4.48285 12.274Z" fill="#A8A8A8"/>
</svg>
