<svg width="24" height="24" viewBox="0 0 24 24" fill="none" xmlns="http://www.w3.org/2000/svg">
<path fill-rule="evenodd" clip-rule="evenodd" d="M3.28801 4.07801C3.20321 4.12444 3.12023 4.21291 3.07463 4.30557C3.00067 4.45585 3 4.52024 3 11.4993C3 18.4813 3.00063 18.5428 3.0747 18.6933C3.12279 18.791 3.20162 18.8727 3.29591 18.9226C3.44149 18.9995 3.49541 19 12.5 19C21.5046 19 21.5585 18.9995 21.7041 18.9226C21.7984 18.8727 21.8772 18.791 21.9253 18.6933C21.9994 18.5428 22 18.4813 22 11.4993C22 4.51743 21.9994 4.45593 21.9253 4.30542C21.8772 4.20768 21.7984 4.12598 21.7041 4.07613C21.5585 3.99912 21.5063 3.9987 12.4922 4.00039C3.53972 4.00208 3.42501 4.00304 3.28801 4.07801ZM9.29004 7.13355C9.97152 7.28137 10.6291 7.81134 10.9364 8.46062C11.2696 9.16461 11.2851 9.92837 10.9798 10.6047L10.8684 10.8514L10.9884 10.9515C11.552 11.421 12.0035 12.1456 12.2048 12.9033C12.2778 13.1783 12.2884 13.3302 12.3041 14.3302C12.3212 15.4122 12.3191 15.4548 12.2434 15.6087C12.1917 15.7137 12.1152 15.7943 12.0185 15.8454C11.8752 15.9212 11.8058 15.9228 8.78454 15.9228H5.69696L5.54266 15.8291C5.26393 15.6597 5.25336 15.6004 5.27388 14.3211C5.2898 13.3314 5.30056 13.1777 5.3734 12.9033C5.57502 12.1437 6.05881 11.3702 6.59174 10.9554L6.71379 10.8604L6.60035 10.6092C6.38597 10.1342 6.32637 9.58303 6.43258 9.05683C6.57515 8.35065 7.08626 7.66929 7.71289 7.35007C8.22893 7.0872 8.74783 7.01596 9.29004 7.13355ZM8.42858 8.28334C8.04506 8.41324 7.77561 8.65949 7.60531 9.03583C7.52501 9.2133 7.50879 9.30423 7.50879 9.57691C7.50879 9.86917 7.52189 9.93225 7.62977 10.1593C7.77052 10.4558 7.97173 10.6592 8.26508 10.8018C8.43916 10.8864 8.52581 10.9031 8.78906 10.9031C9.05232 10.9031 9.13897 10.8864 9.31305 10.8018C9.6064 10.6592 9.8076 10.4558 9.94836 10.1593C10.0562 9.93225 10.0693 9.86917 10.0693 9.57691C10.0693 9.30316 10.0532 9.21354 9.97155 9.03298C9.7561 8.55675 9.34648 8.26764 8.85289 8.24349C8.69143 8.23557 8.52284 8.25141 8.42858 8.28334ZM18.3271 8.30726C18.4918 8.39435 18.623 8.61594 18.623 8.80681C18.623 8.99767 18.4918 9.21927 18.3271 9.30635C18.1864 9.38078 18.1115 9.38378 16.3937 9.38378C14.6112 9.38378 14.6064 9.38355 14.4587 9.29754C14.0853 9.07998 14.0815 8.55348 14.4517 8.32119L14.5967 8.23022L16.3887 8.23003C18.1116 8.22983 18.1863 8.23283 18.3271 8.30726ZM19.4404 10.9998C19.6051 11.0869 19.7363 11.3085 19.7363 11.4993C19.7363 11.6902 19.6051 11.9118 19.4404 11.9989C19.2982 12.0741 19.226 12.0763 16.9504 12.0763H14.6068L14.4587 11.9901C14.0853 11.7725 14.0815 11.246 14.4517 11.0137L14.5967 10.9228L16.9453 10.9226C19.2262 10.9224 19.2982 10.9246 19.4404 10.9998ZM7.35293 11.8035C7.09142 12.0004 6.79284 12.3754 6.63765 12.7018C6.43128 13.1358 6.37836 13.4331 6.37758 14.163L6.37695 14.7689H8.78906H11.2012L11.2005 14.163C11.1998 13.4331 11.1468 13.1358 10.9405 12.7018C10.7853 12.3754 10.4867 12.0004 10.2252 11.8035L10.0842 11.6973L9.81595 11.8293C9.15763 12.1534 8.42049 12.1534 7.76217 11.8293L7.49391 11.6973L7.35293 11.8035ZM19.4404 13.6923C19.6051 13.7794 19.7363 14.001 19.7363 14.1919C19.7363 14.3828 19.6051 14.6044 19.4404 14.6914C19.2982 14.7666 19.226 14.7689 16.9504 14.7689H14.6068L14.4587 14.6826C14.0853 14.4651 14.0815 13.9386 14.4517 13.7063L14.5967 13.6153L16.9453 13.6151C19.2262 13.6149 19.2982 13.6171 19.4404 13.6923Z" fill="#A8A8A8"/>
</svg>
