<svg width="24" height="24" viewBox="0 0 24 24" fill="none" xmlns="http://www.w3.org/2000/svg">
<path fill-rule="evenodd" clip-rule="evenodd" d="M11.8416 4.02235C11.8029 4.03955 11.745 4.08377 11.7129 4.12064C11.6807 4.1575 11.1604 5.05997 10.5564 6.12609C9.39009 8.18488 9.35452 8.26228 9.48255 8.46164C9.60858 8.65785 9.59458 8.65678 11.9999 8.65678C14.4052 8.65678 14.3912 8.65785 14.5172 8.46164C14.6452 8.26242 14.6094 8.1847 13.4439 6.12609C12.8402 5.05997 12.3104 4.15014 12.2664 4.10423C12.1793 4.0132 11.9582 3.97059 11.8416 4.02235ZM8.44635 9.96491C8.38562 9.99865 8.05117 10.5571 7.36708 11.7673C6.82192 12.7317 6.36539 13.5638 6.35258 13.6164C6.32158 13.7439 6.41447 13.9379 6.54373 14.0159C6.63834 14.0729 7.01602 14.0771 11.9999 14.0771C16.9838 14.0771 17.3614 14.0729 17.456 14.0159C17.585 13.9381 17.6781 13.7439 17.6475 13.6164C17.6349 13.5638 17.1783 12.7316 16.6329 11.7671C15.8904 10.454 15.6175 10.0009 15.5463 9.96329C15.4067 9.8896 8.57916 9.89114 8.44635 9.96491ZM5.39399 15.381C5.35029 15.4058 5.29055 15.461 5.26124 15.5037C5.07284 15.7782 3.01841 19.4648 3.00373 19.5547C2.98023 19.699 3.07016 19.8754 3.20301 19.9455C3.29445 19.9938 4.2979 20 11.9999 20C19.7019 20 20.7053 19.9938 20.7968 19.9455C20.9293 19.8756 21.0195 19.6991 20.9964 19.5547C20.9825 19.4677 19.0015 15.9107 18.7436 15.5095C18.7106 15.4583 18.6435 15.3977 18.5945 15.3749C18.4595 15.3122 5.50495 15.3182 5.39399 15.381Z" fill="#A8A8A8"/>
</svg>
