<svg width="32" height="32" viewBox="0 0 32 32" fill="none" xmlns="http://www.w3.org/2000/svg">
<path fill-rule="evenodd" clip-rule="evenodd" d="M21.289 3.5691C20.404 3.67831 19.4999 3.93821 18.7634 4.29509C17.7454 4.7884 17.3736 5.09241 15.1811 7.22349C13.2429 9.10738 13.2458 9.10353 13.2458 9.7709C13.2458 10.2582 13.3647 10.5477 13.6961 10.8675C14.025 11.185 14.3264 11.2996 14.8323 11.2996C15.5312 11.2996 15.5049 11.3186 17.6319 9.28319C18.6584 8.30086 19.6004 7.43109 19.7253 7.35027C20.0935 7.11199 20.5509 6.90672 20.9713 6.79114C21.4937 6.64751 22.5007 6.63699 23.0293 6.76966C23.8545 6.97673 24.6845 7.48981 25.2225 8.12543C25.5293 8.48777 25.8841 9.17203 26.0126 9.64918C26.1381 10.115 26.1371 11.1273 26.0107 11.5724C25.901 11.9585 25.6434 12.5063 25.4228 12.8224C25.3327 12.9516 24.4262 13.868 23.4085 14.8588C21.299 16.9126 21.3167 16.8896 21.3167 17.561C21.3167 18.0483 21.4356 18.3378 21.767 18.6576C22.0959 18.9751 22.3974 19.0897 22.9032 19.0897C23.611 19.0897 23.5703 19.1195 25.754 17.0064C27.0402 15.7618 27.7678 15.0195 27.964 14.7518C28.5843 13.9052 29.0346 12.8843 29.2375 11.8645C29.3731 11.1828 29.3636 9.91618 29.2178 9.25651C28.9967 8.25533 28.6724 7.49833 28.115 6.68193C27.6857 6.05302 26.7429 5.13778 26.1099 4.73528C25.3037 4.22264 24.3427 3.84098 23.3997 3.65888C23.0304 3.5876 21.6241 3.52777 21.289 3.5691ZM21.5919 9.07013C21.4672 9.1139 21.2743 9.21108 21.1632 9.28621C21.052 9.36128 18.3711 11.9275 15.2055 14.989C10.5562 19.4853 9.42685 20.6021 9.3301 20.7988C9.15683 21.151 9.1587 21.7681 9.33404 22.1133C9.49157 22.4235 9.79403 22.7156 10.1159 22.8683C10.3241 22.9671 10.4429 22.9879 10.7968 22.9876C11.5534 22.9869 11.1105 23.3705 17.6388 17.0607C22.3612 12.4963 23.4652 11.4053 23.5615 11.2072C23.7326 10.8555 23.7308 10.2372 23.5576 9.89262C23.4008 9.58053 23.0971 9.28835 22.7771 9.14185C22.4478 8.99101 21.9103 8.95849 21.5919 9.07013ZM9.48557 12.9652C9.36087 13.009 9.16793 13.1059 9.0568 13.1808C8.82244 13.3386 5.46706 16.5905 5.16516 16.9524C4.44776 17.8124 3.92895 18.8768 3.67456 20.0106C3.52656 20.6704 3.51451 22.0327 3.6509 22.6915C3.95175 24.1444 4.59071 25.3001 5.67575 26.3539C6.77072 27.4174 7.896 28.0081 9.43487 28.3273C10.1847 28.4828 11.545 28.4836 12.2944 28.3291C12.9391 28.1961 13.5665 27.9837 14.1513 27.7003C15.1404 27.221 15.5252 26.9063 17.6898 24.8065C19.6239 22.9303 19.6438 22.9042 19.6463 22.2351C19.6481 21.7481 19.5301 21.46 19.1968 21.1384C18.8654 20.8185 18.5655 20.7038 18.0607 20.7038C17.3651 20.7038 17.3889 20.6866 15.2611 22.7228C14.2345 23.7051 13.2852 24.58 13.1513 24.667C12.8238 24.8799 12.2562 25.1286 11.8561 25.2344C11.3951 25.3565 10.3462 25.3574 9.86364 25.2363C9.03849 25.0292 8.2085 24.5161 7.67042 23.8805C7.36368 23.5182 7.00886 22.8339 6.88033 22.3568C6.74287 21.8465 6.75377 20.8746 6.90257 20.3704C7.02233 19.9646 7.23499 19.5231 7.48186 19.1677C7.5656 19.0472 8.46672 18.138 9.48446 17.1471C11.5932 15.0941 11.5736 15.1195 11.5736 14.445C11.5736 13.9567 11.4548 13.6658 11.1259 13.3483C10.7114 12.9483 10.0046 12.7832 9.48557 12.9652Z" fill="#A8A8A8"/>
</svg>
