<svg width="24" height="24" viewBox="0 0 24 24" fill="none" xmlns="http://www.w3.org/2000/svg">
<path fill-rule="evenodd" clip-rule="evenodd" d="M11.3658 3.01182C11.2979 3.01971 11.0918 3.04309 10.9077 3.0638C9.39184 3.23423 7.83384 3.86481 6.5459 4.82922C6.12606 5.14357 5.35175 5.89215 5.005 6.31898C4.16934 7.34747 3.49172 8.73107 3.21142 9.98123C3.03904 10.7502 3 11.124 3 12.006C3 12.8881 3.03904 13.2619 3.21142 14.0308C3.49189 15.2817 4.171 16.668 5.00549 17.6931C5.33132 18.0933 5.97046 18.727 6.37035 19.0463C7.38138 19.8534 8.74874 20.5147 9.97393 20.7892C10.7108 20.9542 11.1506 21 12 21C13.4974 21 14.6454 20.7362 15.964 20.0893C17.4334 19.3684 18.6058 18.3415 19.5238 16.9712C20.0623 16.1674 20.5786 14.967 20.7886 14.0308C20.961 13.2619 21 12.8881 21 12.006C21 11.124 20.961 10.7502 20.7886 9.98123C20.5081 8.7304 19.829 7.34409 18.9945 6.31898C18.6687 5.91874 18.0295 5.28503 17.6296 4.96581C16.4046 3.98792 14.8926 3.32935 13.3316 3.09387C12.8863 3.02668 11.6732 2.97605 11.3658 3.01182ZM12.615 5.75584C13.5641 5.95673 14.3499 6.60361 14.7398 7.50491C14.9049 7.88649 14.9682 8.21895 14.9667 8.69592C14.964 9.52778 14.6576 10.2359 14.0488 10.8172C13.7217 11.1295 13.3758 11.3436 12.9758 11.4814C11.1616 12.1063 9.23884 10.8786 9.04113 8.96901C8.8856 7.46643 9.89261 6.07738 11.3697 5.75714C11.67 5.69203 12.3105 5.69136 12.615 5.75584ZM14.4841 13.1966C15.3978 13.4502 16.0824 14.0245 16.4718 14.8639C16.823 15.6208 16.8418 16.3555 16.5219 16.8225C16.2574 17.2086 15.3166 17.835 14.4841 18.1791C12.9981 18.7935 11.1193 18.8073 9.60399 18.215C8.77588 17.8913 7.69949 17.1896 7.4663 16.8214C7.19156 16.3876 7.175 15.8183 7.41665 15.1144C7.77169 14.0802 8.72337 13.3009 9.83299 13.1357C9.94927 13.1184 10.9799 13.1074 12.1233 13.1113C14.1522 13.1182 14.209 13.1202 14.4841 13.1966Z" fill="#A8A8A8"/>
</svg>
