<svg width="46" height="47" viewBox="0 0 46 47" fill="none" xmlns="http://www.w3.org/2000/svg">
<path d="M23.011 0C10.3077 0 0 10.5043 0 23.5C0 36.4733 10.3077 47 23.011 47C28.2857 47 33.1648 45.182 37.033 42.1294V47H46V23.4776C46 10.5043 35.7143 0 23.011 0ZM39.033 35.7326L37.8901 34.4532L36.6813 35.7326V26.3954C37.011 26.6423 37.4286 26.7994 37.8681 26.7994C38.3077 26.7994 38.7033 26.6648 39.033 26.4179V35.7326V35.7326ZM37.8681 26.1485C37.0989 26.1485 36.5055 25.5201 36.5055 24.7569C36.5055 23.9938 37.1209 23.3653 37.8681 23.3653C38.6154 23.3653 39.2308 23.9938 39.2308 24.7569C39.2308 25.5201 38.6154 26.1485 37.8681 26.1485ZM42.3517 19.4823L39.033 21.0759V23.096C38.7033 22.8491 38.3077 22.692 37.8681 22.692C37.4286 22.692 37.011 22.8491 36.6813 23.096V22.1757L35.033 22.9613V29.4928C35.033 30.458 34.4835 31.6027 33.8242 32.0516L24.2198 38.4709C23.5604 38.9198 22.4835 38.9198 21.8022 38.4709L12.1978 32.0516C11.5385 31.6027 10.989 30.458 10.989 29.4928V22.9613L3.64835 19.4374C2.9011 19.0783 2.9011 18.4947 3.64835 18.1581L21.6484 9.51671C22.3956 9.15759 23.6044 9.15759 24.3297 9.51671L42.3297 18.1581C43.0769 18.5396 43.0769 19.1232 42.3517 19.4823Z" fill="#FDFDFD"/>
</svg>
