<svg width="192" height="25" viewBox="0 0 192 25" fill="none" xmlns="http://www.w3.org/2000/svg">
<path d="M60.8861 7.77856C56.6178 7.77856 53.1544 11.1214 53.1544 15.2571V22.7357H56.5513V15.25C56.5513 12.9357 58.4935 11.0571 60.8861 11.0571C63.2787 11.0571 65.2209 12.9357 65.2209 15.25V22.7286H68.6178V15.25C68.6104 11.1214 65.1544 7.77856 60.8861 7.77856Z" fill="#FDFDFD"/>
<path d="M90.7568 7.77856C86.4885 7.77856 83.0251 11.1214 83.0251 15.2571V22.7357H86.4221V15.25C86.4221 12.9357 88.3642 11.0571 90.7568 11.0571C93.1495 11.0571 95.0916 12.9357 95.0916 15.25V22.7286H98.4885V15.25C98.4811 11.1214 95.0251 7.77856 90.7568 7.77856Z" fill="#FDFDFD"/>
<path d="M74.5551 2.43573H71.1582V22.7286H74.5551V2.43573Z" fill="#FDFDFD"/>
<path d="M29.2357 2.43573V10.9357H20.5661V2.43573H17.1692V22.7286H20.5661V14.2214H29.2357V22.7286H32.6252V2.43573H29.2357Z" fill="#FDFDFD"/>
<path d="M78.779 2.42859C79.5396 2.42859 80.1968 2.70002 80.7433 3.22859C81.2898 3.7643 81.563 4.4143 81.563 5.17145C81.563 5.92145 81.2898 6.5643 80.7507 7.09288C80.2116 7.62145 79.5618 7.88573 78.8085 7.88573C78.0332 7.88573 77.3759 7.6143 76.8295 7.07859C76.283 6.53573 76.0098 5.88573 76.0098 5.1143C76.0098 4.37145 76.283 3.74287 76.8221 3.2143C77.3685 2.69287 78.0184 2.42859 78.779 2.42859Z" fill="#FDFDFD"/>
<path d="M80.4923 9.42145H77.0953V22.7286H80.4923V9.42145Z" fill="#FDFDFD"/>
<path d="M14.6215 16.6286H3.38954C3.552 17.5858 3.98769 18.3429 4.68923 18.9143C5.39077 19.4786 6.29169 19.7643 7.38462 19.7643C8.69169 19.7643 9.81415 19.3215 10.752 18.4429L13.6985 19.7786C12.96 20.7858 12.0812 21.5286 11.0548 22.0143C10.0283 22.5 8.80985 22.7358 7.40677 22.7358C5.22092 22.7358 3.44123 22.0715 2.06031 20.7358C0.686769 19.4072 0 17.7358 0 15.7358C0 13.6786 0.686769 11.9786 2.05292 10.6215C3.42646 9.26433 5.13969 8.58575 7.20739 8.58575C9.40062 8.58575 11.1877 9.26433 12.5612 10.6215C13.9348 11.9786 14.6215 13.7715 14.6215 15.9929V16.6286ZM11.1286 13.9715C10.8997 13.2215 10.4418 12.6072 9.76246 12.1429C9.08308 11.6715 8.29292 11.4358 7.392 11.4358C6.41723 11.4358 5.56062 11.7 4.82215 12.2286C4.35692 12.5572 3.92862 13.1429 3.53723 13.9715H11.1286Z" fill="#FDFDFD"/>
<path d="M42.8972 7.77856C38.6289 7.77856 35.1655 11.1214 35.1655 15.2571C35.1655 19.3857 38.6289 22.7357 42.8972 22.7357C44.6695 22.7357 46.3089 22.1571 47.6086 21.1857V22.7357H50.6215V15.25C50.6215 11.1214 47.1655 7.77856 42.8972 7.77856ZM48.2806 19.15L47.8966 18.7429L47.4904 19.15V16.1786C47.6012 16.2571 47.7415 16.3071 47.8892 16.3071C48.0369 16.3071 48.1698 16.2643 48.2806 16.1857V19.15ZM47.8892 16.1C47.6308 16.1 47.4314 15.9 47.4314 15.6571C47.4314 15.4143 47.6381 15.2143 47.8892 15.2143C48.1403 15.2143 48.3471 15.4143 48.3471 15.6571C48.3471 15.9 48.1403 16.1 47.8892 16.1ZM49.3957 13.9786L48.2806 14.4857V15.1286C48.1698 15.05 48.0369 15 47.8892 15C47.7415 15 47.6012 15.05 47.4904 15.1286V14.8357L46.9366 15.0857V17.1643C46.9366 17.4714 46.752 17.8357 46.5304 17.9786L43.3034 20.0214C43.0818 20.1643 42.72 20.1643 42.4911 20.0214L39.264 17.9786C39.0424 17.8357 38.8578 17.4714 38.8578 17.1643V15.0857L36.3914 13.9643C36.1403 13.85 36.1403 13.6643 36.3914 13.5571L42.4394 10.8071C42.6904 10.6929 43.0966 10.6929 43.3403 10.8071L49.3883 13.5571C49.6394 13.6786 49.6394 13.8643 49.3957 13.9786Z" fill="#FDFDFD"/>
<path d="M106.9 2.42145H106.132V22.7143H106.9V2.42145Z" fill="#FDFDFD"/>
<path d="M151.008 5.57855H148.438V6.30712H151.008V5.57855Z" fill="#FDFDFD"/>
<path d="M146.614 10.4072L146.112 11.1143C145.957 11.3214 145.765 11.5429 145.529 11.7786L147.596 11.6643C148.379 11.6643 149.162 11.5929 149.945 11.4429L149.509 11.1786L149.11 10.9357L149.974 10.4143C150.631 10.7643 151.525 11.3714 152.67 12.2357L151.894 13.05L151.355 12.5714L150.934 12.2572C149.575 12.4143 148.239 12.5429 146.924 12.65C145.374 12.65 144.044 12.7286 142.929 12.8857L142.752 11.8286L143.505 11.8143C143.801 11.8143 144.007 11.8 144.126 11.7786C144.65 11.3072 145.063 10.8429 145.359 10.3929H141.94V9.42859H152.958V10.4072H146.614Z" fill="#FDFDFD"/>
<path d="M151.495 4.91429H148.039V7.51429H146.71V4.91429H143.417V7.61429H142.213V4.12144H146.71V3.50715H142.708V2.71429H152.02V3.50715H148.039V4.12144H152.721V7.53572H151.495V4.91429Z" fill="#FDFDFD"/>
<path d="M151.865 8.0929H143.01V8.86432H151.865V8.0929Z" fill="#FDFDFD"/>
<path d="M146.348 5.49286H143.838V6.25H146.348V5.49286Z" fill="#FDFDFD"/>
<path d="M146.348 6.82855H143.838V7.58569H146.348V6.82855Z" fill="#FDFDFD"/>
<path d="M151.008 6.86432H148.438V7.59289H151.008V6.86432Z" fill="#FDFDFD"/>
<path d="M157.425 10.75L157.846 10.5857L158.274 10.3929V11.4929C157.757 11.6714 157.241 11.8357 156.724 11.9857L154.87 12.5357L154.641 11.4714L155.513 11.2786C155.86 11.2 156.14 11.1143 156.34 11.0429C156.369 10.85 156.399 10.6857 156.421 10.5572C156.665 9.18572 156.879 7.77858 157.041 6.34287C157.056 6.22144 157.078 6.07858 157.115 5.91429L158.201 6.07144C158.06 7.05001 157.927 7.85715 157.816 8.50001L157.425 10.75ZM156.089 4.41429C155.926 3.85715 155.749 3.43572 155.542 3.14287L156.635 2.87144C156.687 2.99287 156.731 3.08572 156.768 3.15001L156.982 3.62144C157.034 3.76429 157.108 3.97144 157.196 4.25001C157.204 4.28572 157.218 4.33572 157.241 4.40715H158.356V5.36429H154.767V4.41429H156.089ZM155.284 10.4429L155.092 8.09287C155.01 7.24287 154.929 6.61429 154.855 6.21429L155.874 5.98572C156.037 6.97144 156.155 8.19287 156.244 9.63572C156.251 9.77144 156.258 9.94287 156.28 10.15L155.284 10.4429ZM165.223 8.18572V11.8714C165.223 12.5929 164.92 12.95 164.3 12.95H163.68L163.414 11.9714L163.894 11.9929C164.086 11.9929 164.182 11.9 164.182 11.7143V9.10001H163.274V12.6714H162.306V9.10001H161.516V12.6714H160.549V9.10001H159.677V13.05H158.636V8.18572H161.029C161.11 8.05001 161.184 7.86429 161.258 7.63572L161.376 7.27858H158.518V6.35715H165.622V7.27858H162.498L162.351 7.70715L162.196 8.19287H165.223V8.18572ZM158.732 5.53572V2.93572H159.825V4.65715H161.428V2.71429H162.513V4.65715H164.079V2.93572H165.172V5.53572H158.732Z" fill="#FDFDFD"/>
<path d="M176.005 8.73572V9.55001C175.244 9.91429 174.402 10.2357 173.465 10.5143H178.309V11.4143H173.465V11.8643V12.1C173.465 12.7286 173.11 13.0429 172.401 13.0429H170.681L170.415 12.1429L172.017 12.1857C172.246 12.1857 172.364 12.0786 172.364 11.8572V11.4072H167.291V10.5071H172.364V10.0286C172.497 10.0143 172.8 9.95001 173.258 9.83572L174.41 9.55001H169.492V8.72144H176.005V8.73572ZM177.031 8.26429H168.598V9.90001H167.557V7.39286H168.14L168.022 3.13572C169.122 3.09286 169.979 2.98572 170.585 2.82144L171.101 3.63572C170.681 3.77858 169.986 3.87858 169.034 3.92858L169.056 4.49286H170.887V5.25001H169.093L169.108 5.87144H170.887V6.64286H169.13L169.152 7.37858H176.47L176.485 6.64286H174.845V5.87858H176.522L176.537 5.25715H174.853V4.49286H176.566L176.581 3.89286H174.727V3.00715H177.607L177.489 7.38572H178.102V9.89287H177.046V8.26429H177.031ZM172.992 4.27858C172.859 4.37144 172.645 4.47858 172.357 4.60715L171.618 4.95001L171.035 4.21429L171.773 4.00001C172.069 3.90001 172.246 3.82144 172.313 3.76429L171.921 3.47858L171.522 3.24286L172.143 2.72144L172.541 2.95715L173.066 3.32858L173.472 3.03572C173.531 3.00715 173.634 2.90715 173.782 2.72858L174.365 3.22858C174.24 3.37144 174.122 3.47858 174.018 3.55715L173.671 3.82858L173.959 4.07858L174.292 4.40715L173.575 4.90715L173.273 4.55715L172.992 4.27858ZM173.051 6.55001C172.822 6.72144 172.401 6.91429 171.803 7.12858C171.773 7.13572 171.729 7.15001 171.685 7.17144L171.183 6.42144C171.286 6.40001 171.367 6.38572 171.426 6.37858C171.729 6.32144 172.032 6.21429 172.335 6.06429L172.409 6.02858L172.002 5.74286L171.618 5.49286L172.231 5.00715L172.637 5.25715C172.859 5.38572 173.021 5.50001 173.125 5.60001C173.295 5.49286 173.435 5.38572 173.546 5.28572L173.945 4.91429L174.55 5.41429L174.129 5.78572L173.76 6.07858L174.092 6.36429L174.425 6.67144L173.671 7.21429L173.339 6.82858L173.051 6.55001Z" fill="#FDFDFD"/>
<path d="M183.737 3.85001L183.39 5.26429C183.257 5.79287 183.116 6.23572 182.969 6.57858C183.589 7.65001 183.906 8.48572 183.906 9.09287C183.906 10.1214 183.338 10.6286 182.208 10.6286C182.053 10.6286 181.927 10.6214 181.854 10.6072L181.551 9.57144C181.728 9.60001 181.949 9.61429 182.23 9.61429C182.274 9.61429 182.333 9.60715 182.4 9.60001C182.466 9.59287 182.511 9.59287 182.533 9.59287C182.747 9.55715 182.858 9.37858 182.858 9.06429C182.858 8.54287 182.533 7.72144 181.876 6.62144C182.045 6.19287 182.186 5.75715 182.304 5.32144L182.629 4.08572H181.388V13.0429H180.273V3.12144H183.744V3.85001H183.737ZM187.554 8.74287H186.72V8.80715C186.72 8.87144 186.72 8.93572 186.72 9.00001C186.72 9.03572 186.72 9.07144 186.72 9.10001C186.72 10.0357 186.491 10.8214 186.033 11.4572C185.575 12.0929 184.815 12.6214 183.766 13.05L183.057 12.1286C184.032 11.8143 184.704 11.4143 185.081 10.9286C185.457 10.4429 185.642 9.77858 185.642 8.94287V8.79287C185.642 8.77858 185.634 8.75715 185.627 8.73572H184.076V7.75715H190.922V8.73572H188.647V11.5643C188.647 11.8214 188.788 11.9429 189.068 11.9429H189.334C189.607 11.9429 189.762 11.8786 189.821 11.75C189.873 11.6214 189.895 11.0857 189.895 10.15L190.855 10.3857V10.45V10.65C190.855 11.7714 190.745 12.4214 190.516 12.6C190.287 12.7786 189.895 12.8643 189.349 12.8643H188.921H188.766C188.367 12.8643 188.071 12.7786 187.872 12.6C187.673 12.4214 187.569 12.0857 187.569 11.5714V8.74287H187.554ZM189.807 6.74287H184.977V6.20715H184.069V3.75001H186.794C186.764 3.68572 186.735 3.62858 186.72 3.59287C186.668 3.46429 186.609 3.35715 186.55 3.26429L186.299 2.85001L187.436 2.71429C187.54 2.87144 187.621 3.02858 187.687 3.20001L187.902 3.75001H190.7V6.21429H189.799V6.74287H189.807ZM189.615 4.72144H185.154V5.80001H189.615V4.72144Z" fill="#FDFDFD"/>
<path d="M117.851 6.99287H115.865V6.16429H117.851V6.99287ZM125.959 5.55715C125.849 4.98572 125.812 4.49287 125.442 4.00001L125.117 3.56429C124.453 2.94287 123.618 2.71429 122.821 2.71429C122.422 2.71429 122.045 2.76429 121.691 2.85001C120.628 3.08572 120.074 3.95001 119.771 4.90715C119.741 5.16429 119.705 5.55715 119.705 5.55715H120.901C120.982 5.21429 121.093 4.89287 121.285 4.60001C121.676 3.97858 122.267 3.70715 122.873 3.70715C123.065 3.70715 123.257 3.73572 123.456 3.78572C124.135 4.07858 124.586 4.75715 124.778 5.55001H125.959V5.55715ZM124.231 8.60001C124.268 8.46429 124.313 8.33572 124.313 8.21429C124.313 8.04287 124.261 7.87144 124.121 7.72144C123.98 7.57858 123.803 7.49287 123.618 7.49287C123.508 7.49287 123.389 7.53572 123.293 7.60001C123.035 7.77144 123.065 7.93572 122.969 8.20001C123.035 8.45001 122.998 8.58572 123.161 8.77144C123.294 8.87858 123.434 8.97144 123.611 8.97144C123.906 8.97144 124.054 8.85001 124.231 8.60001ZM120.982 8.12144C120.871 7.73572 120.561 7.64287 120.273 7.64287C120.066 7.68572 119.808 7.84287 119.756 8.06429C119.712 8.20001 119.69 8.31429 119.69 8.42144C119.69 8.57858 119.741 8.72858 119.852 8.87144C119.978 9.04287 120.177 9.09287 120.354 9.09287C120.465 9.09287 120.546 9.07858 120.613 9.05001C120.901 8.85001 121.012 8.69287 121.012 8.40001C121.004 8.33572 120.989 8.22858 120.982 8.12144ZM122.548 6.82858V6.30001H119.705V6.99287H121.314V9.12144L121.233 9.52144C121.012 10.2214 120.236 10.9 119.705 11.0643V13.0572C120.413 12.5429 120.901 11.8857 121.174 11.0786H121.3L121.314 13.0572H122.562L122.548 6.82858ZM119.158 3.67144H117.548V2.79287H116.256L116.241 3.67144H114.55V4.44287H116.241V5.29287H114.55V8.24287L114.713 8.95715C115.259 9.70001 115.65 9.82144 116.234 9.94287V10.7143H114.543V11.4286H116.234V13.05H117.541V11.4286H119.151V10.7072H117.541V9.93572C117.866 9.75001 117.844 10.0429 118.656 9.37858C118.656 9.37858 119.143 8.63572 119.143 8.12858V5.29287H117.533V4.44287H119.143V3.67144H119.158ZM117.851 7.87144C117.851 7.87144 117.881 7.95001 117.881 8.08572C117.881 8.24287 117.836 8.45715 117.689 8.67144C117.46 8.97858 117.186 9.08572 116.625 9.08572C116.367 8.97858 116.049 8.82144 115.916 8.50001C115.85 8.35001 115.857 8.05001 115.857 7.87858H117.851V7.87144ZM125.945 6.82858V6.30001H123.102V6.99287H124.704V9.12144L124.623 9.52144C124.409 10.2214 123.633 10.9 123.102 11.0643V13.0572C123.81 12.5429 124.298 11.8857 124.571 11.0786H124.697L124.711 13.0572H125.967L125.945 6.82858Z" fill="#FDFDFD"/>
<path d="M131.461 4.16429H133.558V4.97858H131.461V6.00715C132.384 6.20715 133.529 7.65001 133.529 8.56429V8.92144V13.0429H132.273V8.17144C132.273 7.64287 131.897 7.22144 131.461 7.04287C131.461 7.04287 131.476 7.55715 131.476 7.98572C131.476 8.20001 131.476 8.40715 131.461 8.51429V13.0429H130.154V12.6857V11.6214L130.169 7.05001C129.925 7.05001 129.785 7.25715 129.666 7.37858C129.282 7.78572 129.282 7.85001 129.282 8.61429V13.0357H128.116V10.5214V8.69287C128.116 7.70715 128.891 6.64287 129.556 6.30715C130.154 6.00715 129.585 6.10715 130.154 6.00715V4.97858H128.116V4.16429H130.154V2.71429C130.198 2.71429 131.461 2.71429 131.461 2.71429V4.16429ZM137.531 4.17144H139.628V4.98572H137.531V6.01429C138.454 6.20001 139.599 7.65001 139.599 8.57144V8.91429V13.05H138.343V8.17858C138.343 7.65001 137.967 7.21429 137.524 7.04287C137.524 7.04287 137.538 7.55715 137.538 7.99287C137.538 8.20715 137.538 8.40001 137.524 8.50715V13.05H136.217V12.6786V11.6143L136.231 7.04287C135.988 7.04287 135.847 7.25001 135.729 7.37144C135.345 7.77858 135.345 7.85715 135.345 8.62144V13.0429H134.171V10.5143V8.70001C134.171 7.70001 134.946 6.63572 135.611 6.30715C136.209 6.01429 135.641 6.12144 136.209 6.01429V4.99287H134.171V4.17144H136.209V2.72858C136.253 2.72858 137.516 2.72858 137.516 2.72858V4.17144H137.531Z" fill="#FDFDFD"/>
<path d="M118.708 19.75C118.708 20.05 118.523 20.3715 118.154 20.7357C117.903 20.9857 117.497 21.3 116.928 21.6857C116.241 22.1572 115.783 22.3929 115.547 22.3929C115.355 22.3929 115.252 22.2929 115.252 22.1C115.252 21.9143 115.34 21.7857 115.525 21.7143C115.636 21.7 115.798 21.6572 116.02 21.5857C116.751 21.2 117.356 20.7715 117.822 20.3C118.028 20.0929 118.139 19.9143 118.139 19.7643C118.139 19.6429 117.991 19.55 117.696 19.4929C117.312 19.4215 116.729 19.3072 115.946 19.1572C115.702 19.1143 115.481 19.0286 115.289 18.8857C115.045 18.7072 114.919 18.5072 114.919 18.2786C114.919 18.0429 115.141 17.6786 115.591 17.1929C115.902 16.8572 116.359 16.4357 116.943 15.9286C117.194 15.7143 117.401 15.6072 117.571 15.6072C117.792 15.6072 117.903 15.7929 117.903 16.1643C117.903 16.3643 117.829 16.4643 117.681 16.4643C117.563 16.4643 117.489 16.3929 117.46 16.25C117.083 16.4643 116.603 16.8857 116.027 17.5143C115.687 17.8857 115.51 18.1357 115.51 18.2643C115.51 18.4429 115.68 18.5643 116.027 18.6286C116.448 18.7 117.031 18.8143 117.785 18.9643C118.398 19.0786 118.708 19.3429 118.708 19.75Z" fill="#FDFDFD"/>
<path d="M126.875 21.7858C126.875 21.9501 126.794 22.0572 126.631 22.1072C126.513 22.1429 126.306 22.1572 126.004 22.1572C125.694 22.1572 125.428 21.9358 125.206 21.5001C124.985 21.0786 124.874 20.6143 124.874 20.1215C124.874 20.0358 124.889 19.8501 124.926 19.5715C124.955 19.2929 124.97 19.0786 124.97 18.9215C124.97 18.7429 124.955 18.6286 124.926 18.5643C124.874 18.4643 124.778 18.4143 124.623 18.4143C124.158 18.4143 123.751 18.8001 123.404 19.5715C123.116 20.2215 122.902 20.8072 122.754 21.3429C122.688 21.6358 122.651 21.9072 122.651 22.1715C122.651 22.3143 122.54 22.3858 122.326 22.3858C122.26 22.3858 122.201 22.3501 122.142 22.2715C122.068 22.2072 122.023 22.1429 122.023 22.0786C122.023 22.0001 122.06 21.8072 122.142 21.5001C122.252 21.0429 122.37 20.5858 122.496 20.1358C122.629 19.5786 122.695 19.1286 122.695 18.7715C122.695 18.5929 122.599 18.5072 122.4 18.5072C122.001 18.5072 121.632 18.6858 121.278 19.0429C120.938 19.4072 120.702 19.8215 120.576 20.2858C120.561 20.3429 120.45 20.8858 120.244 21.9072C120.229 21.9858 120.199 22.1001 120.148 22.2501C120.103 22.3358 120.022 22.3786 119.897 22.3786C119.823 22.3786 119.742 22.3429 119.668 22.2643C119.601 22.2072 119.564 22.1429 119.564 22.0715C119.564 22.0929 119.638 21.8715 119.786 21.4001C119.889 21.0858 119.985 20.6786 120.081 20.1715C120.17 19.6643 120.214 19.2929 120.214 19.0572C120.214 18.7358 120.185 18.4715 120.118 18.2786C120.066 18.1001 120.037 17.9929 120.037 17.9715C120.037 17.8501 120.103 17.7929 120.244 17.7929C120.465 17.7929 120.613 17.9572 120.687 18.2929C120.731 18.4572 120.753 18.6643 120.761 18.9215C121.041 18.6358 121.351 18.4072 121.706 18.2215C122.023 18.0572 122.282 17.9786 122.481 17.9786C122.969 17.9786 123.212 18.2286 123.212 18.7286V18.9286C123.589 18.2358 124.121 17.8858 124.815 17.8858C125.029 17.8858 125.199 17.9786 125.332 18.1572C125.45 18.3358 125.509 18.5501 125.509 18.7858C125.509 18.7929 125.494 18.9358 125.465 19.2143C125.435 19.5001 125.42 19.7286 125.42 19.9001C125.42 20.3929 125.487 20.7929 125.612 21.1072C125.745 21.4143 125.922 21.5715 126.159 21.5715C126.203 21.5715 126.27 21.5572 126.343 21.5215C126.41 21.4929 126.484 21.4786 126.55 21.4786C126.764 21.5001 126.875 21.5929 126.875 21.7858Z" fill="#FDFDFD"/>
<path d="M132.007 22.0786C132.007 22.2858 131.882 22.3929 131.638 22.3929C131.328 22.3929 131.07 22.2786 130.863 22.0358C130.663 21.8 130.56 21.5215 130.56 21.2072C130.56 21.1429 130.567 21.05 130.582 20.9358C130.339 21.2358 130.028 21.5072 129.652 21.7572C129.26 22.0143 128.943 22.1429 128.692 22.1429C128.404 22.1429 128.175 22.0429 127.998 21.85C127.828 21.6572 127.739 21.4215 127.739 21.15C127.739 20.4072 128.064 19.6643 128.699 18.9215C129.319 18.1858 129.91 17.8215 130.479 17.8215C130.819 17.8215 131.114 17.9358 131.358 18.1643C131.572 18.3572 131.683 18.55 131.683 18.7429C131.683 18.8715 131.668 18.9715 131.631 19.0429C131.742 19.1072 131.801 19.2 131.801 19.3143C131.801 19.4072 131.719 19.5715 131.557 19.8C131.262 20.2 131.114 20.7143 131.114 21.35C131.114 21.55 131.232 21.7072 131.461 21.8286C131.542 21.7929 131.631 21.7786 131.712 21.7786C131.904 21.7715 132.007 21.8715 132.007 22.0786ZM131.254 19.1786C131.254 18.9286 131.18 18.7215 131.047 18.55C130.915 18.3786 130.737 18.2929 130.501 18.2929C130.051 18.2929 129.556 18.6286 129.024 19.3072C128.507 19.95 128.249 20.5143 128.249 21.0072C128.249 21.4286 128.419 21.6358 128.751 21.6358C128.972 21.6358 129.319 21.4429 129.785 21.0572C130.176 20.7215 130.508 20.3786 130.789 20.0215C130.87 19.8429 131.018 19.5572 131.254 19.1786Z" fill="#FDFDFD"/>
<path d="M136.18 18.7572C136.18 18.9643 136.069 19.0715 135.855 19.0715C135.781 19.0715 135.707 19.05 135.633 19.0072C135.567 18.9643 135.523 18.9429 135.508 18.9429C135.183 18.9429 134.777 19.2072 134.282 19.7429C133.935 20.1143 133.632 20.7643 133.381 21.7C133.351 21.85 133.329 21.9929 133.307 22.1358C133.255 22.3072 133.152 22.3858 132.982 22.3858C132.923 22.3858 132.864 22.3572 132.812 22.2929C132.761 22.2358 132.739 22.1715 132.739 22.1C132.739 21.9786 132.82 21.7143 132.982 21.3C133.255 20.6286 133.388 19.7429 133.388 18.6358C133.388 18.5715 133.359 18.4643 133.292 18.3143C133.226 18.1643 133.196 18.0643 133.196 18.0072C133.196 17.8715 133.285 17.8072 133.47 17.8072C133.765 17.8072 133.913 18.0786 133.913 18.6286C133.913 19.0429 133.883 19.3786 133.817 19.6429C134.422 18.8215 135.035 18.4072 135.648 18.4072C136.01 18.4143 136.18 18.5286 136.18 18.7572Z" fill="#FDFDFD"/>
<path d="M141.556 21.3072C141.556 21.4143 141.475 21.5143 141.312 21.6C141.187 21.6643 141.061 21.7286 140.935 21.7929C140.655 21.9643 140.33 22.1 139.953 22.2215C139.569 22.3358 139.259 22.3929 139.023 22.3929C138.211 22.3929 137.812 21.9858 137.812 21.1786C137.812 20.9858 137.982 20.3286 138.321 19.1929C137.915 19.2429 137.605 19.2715 137.391 19.2715C136.985 19.2715 136.785 19.1715 136.785 18.9786C136.785 18.8143 136.859 18.7358 137.014 18.7358H137.539C137.775 18.7358 138.1 18.6929 138.513 18.6143L139.156 16.75C139.244 16.4715 139.348 16.3358 139.459 16.3358C139.673 16.3358 139.783 16.4143 139.783 16.5786L139.628 17.0358C139.436 17.5858 139.274 18.0643 139.156 18.4715C139.621 18.3643 140.057 18.2429 140.463 18.1072C140.529 17.9858 140.596 17.9215 140.684 17.9215C140.773 17.9215 140.869 17.9572 140.958 18.0215C141.039 18.0858 141.083 18.1572 141.083 18.2429C141.083 18.4215 140.906 18.55 140.559 18.6286C140.212 18.7072 139.687 18.85 138.986 19.0429C138.58 19.9643 138.38 20.6715 138.38 21.15C138.38 21.6143 138.595 21.85 139.023 21.85C139.222 21.85 139.488 21.8 139.82 21.7072C140.145 21.6143 140.426 21.5 140.647 21.3643C140.677 21.3429 140.788 21.2643 140.995 21.1215C141.091 21.0429 141.179 21 141.253 21C141.445 21.0072 141.556 21.1072 141.556 21.3072Z" fill="#FDFDFD"/>
<path d="M151.894 21.4215C151.894 21.5072 151.857 21.5858 151.776 21.6429C151.71 21.7 151.621 21.7358 151.525 21.7358C151.518 21.7358 151.459 21.7286 151.348 21.7072C151.244 21.6929 151.148 21.6858 151.052 21.6858C149.177 21.6858 147.759 21.8358 146.814 22.1286C146.806 22.1286 146.688 22.1786 146.459 22.2715C146.275 22.35 146.156 22.3929 146.112 22.3929C146.038 22.3929 145.964 22.3572 145.905 22.2786C145.854 22.2143 145.824 22.15 145.824 22.0858C145.824 22.0286 145.913 21.8143 146.097 21.4286C146.43 20.7143 146.725 19.7715 146.976 18.6072C147.183 17.6 147.301 16.6929 147.331 15.8929C147.338 15.7 147.434 15.6 147.626 15.6C147.692 15.6 147.759 15.6286 147.811 15.6929C147.877 15.75 147.907 15.8143 147.907 15.8929C147.907 16.6358 147.774 17.5786 147.508 18.7072C147.22 19.9358 146.924 20.8929 146.629 21.5858C147.951 21.3072 149.088 21.1715 150.055 21.1715C150.373 21.1715 150.639 21.1643 150.853 21.15C150.942 21.1429 151.148 21.1143 151.473 21.0715C151.518 21.0643 151.555 21.0643 151.591 21.0643C151.791 21.0572 151.894 21.1786 151.894 21.4215Z" fill="#FDFDFD"/>
<path d="M157.551 21.2786C157.551 21.35 157.388 21.4929 157.056 21.7072C156.332 22.1643 155.579 22.3929 154.804 22.3929C153.356 22.3929 152.633 21.8358 152.633 20.7215C152.633 20.0429 152.958 19.3858 153.593 18.7572C154.228 18.1286 154.907 17.8143 155.616 17.8143C155.971 17.8143 156.303 17.9429 156.613 18.2C156.923 18.4643 157.071 18.7429 157.071 19.0286C157.071 19.4715 156.62 19.8286 155.719 20.0858C154.339 20.4858 153.563 20.6858 153.408 20.6858C153.342 20.6858 153.268 20.6786 153.187 20.6643C153.179 20.7072 153.179 20.7786 153.179 20.8786C153.179 21.2143 153.349 21.4786 153.681 21.6715C153.977 21.8429 154.346 21.9215 154.804 21.9215C155.424 21.9215 156.067 21.7 156.739 21.25C156.812 21.1858 156.894 21.1286 156.982 21.0786C157.093 20.9929 157.174 20.9429 157.233 20.9429C157.329 20.9429 157.403 20.9858 157.462 21.0643C157.521 21.1286 157.551 21.2 157.551 21.2786ZM156.502 18.9286C156.502 18.7786 156.414 18.6358 156.229 18.4929C156.044 18.35 155.845 18.2786 155.609 18.2786C155.166 18.2786 154.723 18.4715 154.265 18.8572C153.807 19.2429 153.497 19.6715 153.342 20.1572C153.689 20.1215 154.442 19.9358 155.601 19.6C156.207 19.4286 156.502 19.2072 156.502 18.9286Z" fill="#FDFDFD"/>
<path d="M162.683 22.0786C162.683 22.2858 162.558 22.3929 162.314 22.3929C162.004 22.3929 161.738 22.2786 161.538 22.0358C161.339 21.8 161.236 21.5215 161.236 21.2072C161.236 21.1429 161.243 21.05 161.258 20.9358C161.014 21.2358 160.704 21.5072 160.327 21.7572C159.936 22.0143 159.611 22.1429 159.367 22.1429C159.079 22.1429 158.85 22.0429 158.673 21.85C158.496 21.6572 158.415 21.4215 158.415 21.15C158.415 20.4072 158.74 19.6643 159.375 18.9215C159.995 18.1858 160.586 17.8215 161.154 17.8215C161.494 17.8215 161.79 17.9358 162.033 18.1643C162.247 18.3572 162.358 18.55 162.358 18.7429C162.358 18.8715 162.343 18.9715 162.306 19.0429C162.417 19.1072 162.476 19.2 162.476 19.3143C162.476 19.4072 162.395 19.5715 162.233 19.8C161.937 20.2 161.79 20.7143 161.79 21.35C161.79 21.55 161.908 21.7072 162.137 21.8286C162.218 21.7929 162.306 21.7786 162.388 21.7786C162.58 21.7715 162.683 21.8715 162.683 22.0786ZM161.93 19.1786C161.93 18.9286 161.863 18.7215 161.723 18.55C161.59 18.3786 161.406 18.2929 161.177 18.2929C160.726 18.2929 160.231 18.6286 159.7 19.3072C159.183 19.95 158.924 20.5143 158.924 21.0072C158.924 21.4286 159.094 21.6358 159.426 21.6358C159.648 21.6358 159.995 21.4429 160.46 21.0572C160.852 20.7215 161.184 20.3786 161.465 20.0215C161.538 19.8429 161.694 19.5572 161.93 19.1786Z" fill="#FDFDFD"/>
<path d="M166.855 18.7572C166.855 18.9643 166.745 19.0715 166.53 19.0715C166.457 19.0715 166.383 19.05 166.309 19.0072C166.242 18.9643 166.198 18.9429 166.183 18.9429C165.858 18.9429 165.452 19.2072 164.958 19.7429C164.61 20.1143 164.308 20.7643 164.057 21.7C164.027 21.85 164.005 21.9929 163.983 22.1358C163.931 22.3072 163.828 22.3858 163.658 22.3858C163.591 22.3858 163.54 22.3572 163.488 22.2929C163.436 22.2358 163.414 22.1715 163.414 22.1C163.414 21.9786 163.495 21.7143 163.658 21.3C163.931 20.6286 164.064 19.7429 164.064 18.6358C164.064 18.5715 164.034 18.4643 163.968 18.3143C163.902 18.1643 163.872 18.0643 163.872 18.0072C163.872 17.8715 163.961 17.8072 164.145 17.8072C164.441 17.8072 164.588 18.0786 164.588 18.6286C164.588 19.0429 164.559 19.3786 164.492 19.6429C165.098 18.8215 165.711 18.4072 166.324 18.4072C166.686 18.4143 166.855 18.5286 166.855 18.7572Z" fill="#FDFDFD"/>
<path d="M172.475 22.0572C172.475 22.2786 172.35 22.3929 172.091 22.3929C171.36 22.3929 170.991 22.0215 170.991 21.2786C170.991 21.0286 171.035 20.6072 171.124 20C171.205 19.4072 171.249 19.0215 171.249 18.8429C171.249 18.5858 171.124 18.4572 170.88 18.4572C170.149 18.4572 169.425 19.0858 168.724 20.35C168.62 20.7286 168.48 21.2143 168.303 21.8215C168.229 22.0572 168.089 22.1786 167.882 22.1786C167.793 22.1786 167.719 22.1358 167.675 22.0572C167.623 21.9858 167.601 21.9 167.601 21.8143C167.601 21.7786 167.631 21.7143 167.683 21.6215L167.808 21.4072C167.911 21.2072 168.015 20.8643 168.111 20.3929C168.199 19.9143 168.244 19.5286 168.244 19.2286C168.244 18.8858 168.199 18.6286 168.111 18.4572C168 18.2429 167.941 18.0929 167.941 18.0143C167.941 17.8786 168.022 17.8143 168.185 17.8143C168.325 17.8143 168.458 17.9286 168.583 18.1572C168.709 18.3858 168.775 18.6286 168.775 18.8786C168.775 19.0929 168.768 19.2572 168.768 19.3786C169.499 18.4286 170.238 17.95 170.983 17.95C171.523 17.95 171.788 18.2143 171.788 18.75C171.788 18.9786 171.737 19.3929 171.633 19.9858C171.537 20.5786 171.486 20.9715 171.486 21.1643C171.486 21.3143 171.53 21.4643 171.611 21.6215C171.7 21.7715 171.788 21.8429 171.87 21.8429C171.899 21.8429 171.936 21.8358 171.995 21.8143C172.054 21.7858 172.099 21.7715 172.128 21.7715C172.372 21.7643 172.475 21.8572 172.475 22.0572Z" fill="#FDFDFD"/>
<path d="M174.823 18.1C174.823 18.2429 174.779 18.4429 174.691 18.7C174.572 19.0358 174.506 19.2358 174.491 19.3C174.343 19.9072 174.218 20.6715 174.115 21.6C174.122 21.5358 174.122 21.7 174.122 22.0858C174.122 22.15 174.085 22.2215 174.019 22.2858C173.952 22.3572 173.878 22.4 173.79 22.4C173.701 22.4 173.62 22.3643 173.546 22.2858C173.479 22.2143 173.443 22.1286 173.443 22.0358C173.443 21.9072 173.472 21.7286 173.524 21.5072C173.598 21.1858 173.642 21 173.649 20.9572C173.841 19.8 174.004 18.95 174.122 18.4143C174.203 18.0143 174.343 17.8143 174.543 17.8143C174.735 17.8143 174.823 17.9072 174.823 18.1ZM175.422 16.0786C175.422 16.25 175.244 16.3286 174.89 16.3286C174.794 16.3286 174.698 16.2858 174.595 16.2C174.491 16.1143 174.439 16.0143 174.439 15.8929C174.439 15.6929 174.594 15.5929 174.912 15.5929C175.03 15.5929 175.141 15.65 175.244 15.7643C175.363 15.8858 175.422 15.9929 175.422 16.0786Z" fill="#FDFDFD"/>
<path d="M181.255 22.0572C181.255 22.2786 181.13 22.3929 180.871 22.3929C180.14 22.3929 179.771 22.0215 179.771 21.2786C179.771 21.0286 179.815 20.6072 179.904 20C179.985 19.4072 180.03 19.0215 180.03 18.8429C180.03 18.5858 179.904 18.4572 179.66 18.4572C178.929 18.4572 178.206 19.0858 177.504 20.35C177.401 20.7286 177.26 21.2143 177.083 21.8215C177.009 22.0572 176.869 22.1786 176.662 22.1786C176.574 22.1786 176.5 22.1358 176.455 22.0572C176.404 21.9858 176.382 21.9 176.382 21.8143C176.382 21.7786 176.411 21.7143 176.463 21.6215L176.588 21.4072C176.692 21.2072 176.795 20.8643 176.891 20.3929C176.98 19.9143 177.024 19.5286 177.024 19.2286C177.024 18.8858 176.98 18.6286 176.891 18.4572C176.78 18.2429 176.721 18.0929 176.721 18.0143C176.721 17.8786 176.803 17.8143 176.965 17.8143C177.105 17.8143 177.238 17.9286 177.364 18.1572C177.489 18.3858 177.556 18.6286 177.556 18.8786C177.556 19.0929 177.548 19.2572 177.548 19.3786C178.279 18.4286 179.018 17.95 179.771 17.95C180.31 17.95 180.576 18.2143 180.576 18.75C180.576 18.9786 180.524 19.3929 180.421 19.9858C180.325 20.5786 180.273 20.9715 180.273 21.1643C180.273 21.3143 180.318 21.4643 180.399 21.6215C180.487 21.7715 180.576 21.8429 180.657 21.8429C180.687 21.8429 180.724 21.8358 180.783 21.8143C180.842 21.7858 180.886 21.7715 180.923 21.7715C181.145 21.7643 181.255 21.8572 181.255 22.0572Z" fill="#FDFDFD"/>
<path d="M187.207 21.1143C187.207 21.2072 187.163 21.2929 187.082 21.3643C186.993 21.4358 186.897 21.4786 186.787 21.4858C186.491 21.5143 186.048 21.5572 185.457 21.6286C185.347 21.95 185.199 22.3786 185.007 22.9072C184.859 23.3215 184.549 23.5286 184.076 23.5286C183.921 23.5286 183.744 23.4643 183.53 23.3358C183.294 23.1786 183.175 23.0215 183.175 22.8572C183.175 22.4286 183.818 21.8715 185.095 21.1858L185.376 20.3929C184.564 21.0858 183.84 21.4358 183.19 21.4358C182.917 21.4358 182.681 21.3715 182.481 21.2358C182.238 21.0643 182.112 20.8572 182.112 20.6072C182.112 20.0572 182.459 19.4572 183.146 18.7929C183.84 18.1358 184.46 17.8072 185.007 17.8072C185.295 17.8072 185.524 17.8929 185.708 18.0715C185.871 18.2286 185.952 18.4143 185.952 18.6286C185.952 18.8929 185.849 19.0215 185.649 19.0215C185.546 19.0215 185.494 18.9215 185.494 18.7215C185.494 18.5572 185.457 18.4429 185.391 18.3786C185.332 18.3215 185.228 18.2858 185.066 18.2858C184.63 18.2858 184.121 18.5643 183.53 19.1286C182.947 19.6858 182.651 20.1643 182.651 20.5643C182.651 20.6572 182.71 20.7429 182.828 20.8286C182.939 20.9143 183.065 20.9572 183.205 20.9572C183.523 20.9572 183.914 20.8143 184.364 20.5286C184.822 20.2429 185.258 19.8572 185.671 19.3715C185.723 19.2929 185.767 19.2072 185.819 19.1286C185.878 19.05 185.952 19.0072 186.041 19.0072C186.27 19.0072 186.388 19.0929 186.388 19.2643C186.388 19.3786 186.247 19.6858 185.967 20.1786L185.62 21.0715C185.893 21.0572 186.166 21.0072 186.439 20.9286C186.742 20.85 186.89 20.8072 186.883 20.8072C187.097 20.8143 187.207 20.9143 187.207 21.1143ZM184.918 21.8358C184.438 22.0429 184.032 22.3786 183.715 22.8358C183.847 22.9643 183.966 23.0286 184.069 23.0286C184.313 23.0286 184.468 22.9572 184.542 22.8143C184.704 22.4786 184.83 22.15 184.918 21.8358Z" fill="#FDFDFD"/>
<path d="M189.955 21.8643C189.955 22.0072 189.903 22.1286 189.799 22.2286C189.689 22.3358 189.563 22.3929 189.423 22.3929C189.283 22.3929 189.164 22.3358 189.054 22.2286C188.95 22.1286 188.899 22.0072 188.899 21.8643C188.899 21.7286 188.95 21.6143 189.054 21.5215C189.157 21.4215 189.283 21.3715 189.423 21.3715C189.571 21.3715 189.703 21.4215 189.814 21.5215C189.903 21.6143 189.955 21.7286 189.955 21.8643ZM189.711 19.9C189.711 20.1143 189.622 20.2215 189.438 20.2215C189.231 20.2215 189.127 20.1143 189.127 19.9V15.9072C189.127 15.8215 189.164 15.7429 189.231 15.6858C189.297 15.6286 189.356 15.5929 189.43 15.5929C189.622 15.5929 189.711 15.7 189.711 15.9072V19.9Z" fill="#FDFDFD"/>
</svg>
