<svg width="100" height="100" viewBox="0 0 100 100" fill="none" xmlns="http://www.w3.org/2000/svg">
<path d="M51.8728 37.4818H88.5001V72.2545H51.8728V37.4818Z" fill="#0D6CBE" stroke="#0D6CBE" stroke-linecap="round" stroke-linejoin="round"/>
<path d="M28.7365 52.2091H31.4638C35.7555 52.2091 39.8714 53.914 42.906 56.9486C45.9407 59.9833 47.6456 64.0992 47.6456 68.3909V82.1H12.5547V68.3909C12.5547 64.0992 14.2596 59.9833 17.2942 56.9486C20.3289 53.914 24.4448 52.2091 28.7365 52.2091Z" fill="white" stroke="#0D6CBE"/>
<path d="M29.9456 82.1V58.5455" stroke="#0D6CBE" stroke-linejoin="round"/>
<path d="M29.9182 55.4454C40.2861 55.4454 48.691 47.0406 48.691 36.6727C48.691 26.3048 40.2861 17.9 29.9182 17.9C19.5503 17.9 11.1455 26.3048 11.1455 36.6727C11.1455 47.0406 19.5503 55.4454 29.9182 55.4454Z" fill="white"/>
<path d="M29.9182 55.0909C40.0903 55.0909 48.3364 46.8448 48.3364 36.6727C48.3364 26.5006 40.0903 18.2545 29.9182 18.2545C19.7461 18.2545 11.5 26.5006 11.5 36.6727C11.5 46.8448 19.7461 55.0909 29.9182 55.0909Z" stroke="#0D6CBE"/>
<path d="M36.1545 40.2637C36.8925 40.2637 37.4908 39.4659 37.4908 38.4818C37.4908 37.4978 36.8925 36.7 36.1545 36.7C35.4164 36.7 34.8181 37.4978 34.8181 38.4818C34.8181 39.4659 35.4164 40.2637 36.1545 40.2637Z" fill="#0D6CBE"/>
<path d="M23.6818 40.2637C24.4199 40.2637 25.0182 39.4659 25.0182 38.4818C25.0182 37.4978 24.4199 36.7 23.6818 36.7C22.9438 36.7 22.3455 37.4978 22.3455 38.4818C22.3455 39.4659 22.9438 40.2637 23.6818 40.2637Z" fill="#0D6CBE"/>
<path d="M12.7727 29.9364H36.3454L37.7909 26.3455L39.3909 29.9364H47.0545" stroke="#0D6CBE" stroke-linecap="round" stroke-linejoin="round"/>
<path d="M47.0545 30.1545H39.3818L37.7909 26.5727L36.3636 30.1545H12.7727C14.1299 26.7152 16.4904 23.7637 19.5473 21.6837C22.6042 19.6037 26.2162 18.4914 29.9136 18.4914C33.6111 18.4914 37.223 19.6037 40.2799 21.6837C43.3368 23.7637 45.6973 26.7152 47.0545 30.1545Z" fill="#0D6CBE"/>
<path d="M26.4545 54.7636L29.9182 57.4818L24.1091 61.4546L21.6182 53.8546" stroke="#0D6CBE" stroke-linejoin="round"/>
<path d="M33.3819 54.7636L29.9182 57.4818L35.7273 61.4546L38.2182 53.8546" stroke="#0D6CBE" stroke-linejoin="round"/>
<path d="M30.991 62.5273L31.6728 62.3727L32.5819 59.2727L29.991 57.5091L27.4001 59.2727L28.1819 63.1091L29.091 62.9182L26.6274 74.8182C26.5885 75.0094 26.5954 75.2071 26.6475 75.3951C26.6996 75.5831 26.7955 75.7561 26.9274 75.9L29.5728 78.7818C29.6384 78.8526 29.7178 78.9091 29.8062 78.9477C29.8946 78.9863 29.99 79.0062 30.0865 79.0062C30.1829 79.0062 30.2783 78.9863 30.3667 78.9477C30.4551 78.9091 30.5346 78.8526 30.6001 78.7818L33.2455 75.9C33.3793 75.7574 33.4765 75.5844 33.5287 75.396C33.581 75.2076 33.5867 75.0093 33.5456 74.8182L30.991 62.5273Z" fill="#FD9841"/>
<path d="M29.9454 57.4909L27.3545 59.2545L28.0545 62.4364C28.0957 62.6171 28.2069 62.7741 28.3637 62.8729C28.5205 62.9717 28.71 63.0044 28.8909 62.9636L31.0818 62.4818C31.2516 62.4447 31.4088 62.364 31.538 62.2477C31.6671 62.1313 31.7637 61.9833 31.8181 61.8182L32.5363 59.2818L29.9454 57.4909Z" stroke="#0D6CBE" stroke-linejoin="round"/>
<path d="M29.091 62.9182L26.6274 74.8182C26.5885 75.0094 26.5954 75.2071 26.6475 75.3951C26.6996 75.5831 26.7955 75.7562 26.9274 75.9L29.5728 78.7818C29.6384 78.8526 29.7178 78.9091 29.8062 78.9477C29.8946 78.9863 29.99 79.0062 30.0865 79.0062C30.1829 79.0062 30.2783 78.9863 30.3667 78.9477C30.4551 78.9091 30.5346 78.8526 30.6001 78.7818L33.2455 75.9C33.3793 75.7574 33.4765 75.5845 33.5287 75.396C33.581 75.2076 33.5867 75.0093 33.5456 74.8182L30.991 62.5273" stroke="#0D6CBE" stroke-linecap="round" stroke-linejoin="round"/>
<path d="M26.0818 43.8182C26.532 44.4012 27.1098 44.8732 27.7709 45.198C28.432 45.5228 29.1588 45.6917 29.8954 45.6917C30.632 45.6917 31.3588 45.5228 32.0199 45.198C32.681 44.8732 33.2589 44.4012 33.7091 43.8182" stroke="#0D6CBE" stroke-linecap="round"/>
<path d="M70.3545 52.2091C74.4059 52.2091 78.2915 53.8179 81.1572 56.6818C84.0228 59.5458 85.6339 63.4304 85.6363 67.4818V82.1H55.0818V67.4818C55.0842 63.432 56.6941 59.5487 59.5577 56.685C62.4214 53.8214 66.3047 52.2115 70.3545 52.2091Z" fill="white" stroke="#0D6CBE"/>
<path d="M66.9272 54.7636L70.2 58.3909L64.709 62.3636L62.3545 54.4636M73.4727 54.7636L70.2 58.3909L75.6818 62.3636L78.0363 54.4636" stroke="#0D6CBE" stroke-linejoin="round"/>
<path d="M70.191 18.8091C73.8842 18.8091 77.4943 19.9042 80.5651 21.956C83.6358 24.0078 86.0291 26.9241 87.4424 30.3361C88.8557 33.7481 89.2255 37.5025 88.505 41.1247C87.7845 44.7468 86.0061 48.074 83.3947 50.6854C80.7832 53.2969 77.4561 55.0753 73.8339 55.7957C70.2118 56.5162 66.4573 56.1465 63.0453 54.7332C59.6333 53.3199 56.717 50.9265 54.6652 47.8558C52.6135 44.7851 51.5183 41.1749 51.5183 37.4818C51.5171 35.0293 51.9993 32.6007 52.9373 30.3347C53.8752 28.0686 55.2506 26.0097 56.9848 24.2755C58.7189 22.5414 60.7779 21.166 63.0439 20.228C65.3099 19.2901 67.7386 18.8079 70.191 18.8091ZM88.5001 37.4818C88.5019 33.858 87.4289 30.3152 85.4168 27.3014C83.4046 24.2876 80.5438 21.9383 77.1962 20.5507C73.8486 19.1631 70.1647 18.7996 66.6105 19.5061C63.0563 20.2126 59.7914 21.9574 57.229 24.5198C54.6667 27.0822 52.9218 30.347 52.2153 33.9013C51.5088 37.4555 51.8723 41.1394 53.2599 44.487C54.6475 47.8346 56.9968 50.6954 60.0106 52.7075C63.0244 54.7197 66.5673 55.7927 70.191 55.7909C75.0462 55.7885 79.7018 53.8587 83.1349 50.4256C86.568 46.9925 88.4977 42.3369 88.5001 37.4818Z" fill="white"/>
<path d="M70.191 19.1636C73.814 19.1636 77.3556 20.238 80.368 22.2508C83.3804 24.2636 85.7283 27.1245 87.1148 30.4718C88.5012 33.819 88.864 37.5021 88.1572 41.0555C87.4504 44.6089 85.7057 47.8729 83.1439 50.4347C80.582 52.9966 77.3181 54.7412 73.7647 55.448C70.2113 56.1548 66.5281 55.7921 63.1809 54.4056C59.8337 53.0191 56.9728 50.6713 54.96 47.6589C52.9471 44.6464 51.8728 41.1048 51.8728 37.4818C51.8728 32.6235 53.8027 27.9642 57.2381 24.5289C60.6734 21.0936 65.3327 19.1636 70.191 19.1636Z" fill="white"/>
<path d="M70.191 19.1636C73.814 19.1636 77.3556 20.238 80.368 22.2508C83.3804 24.2636 85.7283 27.1245 87.1148 30.4718C88.5012 33.819 88.864 37.5021 88.1572 41.0555C87.4504 44.6089 85.7057 47.8729 83.1439 50.4347C80.582 52.9966 77.3181 54.7412 73.7647 55.448C70.2113 56.1548 66.5281 55.7921 63.1809 54.4056C59.8337 53.0192 56.9728 50.6713 54.96 47.6589C52.9471 44.6464 51.8728 41.1048 51.8728 37.4818C51.8728 32.6235 53.8027 27.9642 57.2381 24.5289C60.6734 21.0936 65.3327 19.1636 70.191 19.1636V19.1636Z" stroke="#0D6CBE"/>
<path d="M76.391 41.0455C77.124 41.0455 77.7183 40.2518 77.7183 39.2727C77.7183 38.2937 77.124 37.5 76.391 37.5C75.658 37.5 75.0637 38.2937 75.0637 39.2727C75.0637 40.2518 75.658 41.0455 76.391 41.0455Z" fill="#0D6CBE"/>
<path d="M63.9818 41.0455C64.7148 41.0455 65.3091 40.2518 65.3091 39.2727C65.3091 38.2937 64.7148 37.5 63.9818 37.5C63.2488 37.5 62.6545 38.2937 62.6545 39.2727C62.6545 40.2518 63.2488 41.0455 63.9818 41.0455Z" fill="#0D6CBE"/>
<path d="M66.3638 44.6273C66.8139 45.2103 67.3918 45.6823 68.0529 46.0071C68.714 46.3319 69.4408 46.5008 70.1774 46.5008C70.914 46.5008 71.6408 46.3319 72.3019 46.0071C72.963 45.6823 73.5409 45.2103 73.991 44.6273" stroke="#0D6CBE" stroke-linecap="round"/>
<path d="M70.1636 82.1V58.5455" stroke="#0D6CBE" stroke-linejoin="round"/>
<path d="M70.2 60C70.2 60 70.2 65.1545 71.7545 68.8455L75.3909 66.3091C75.3909 66.3091 71.9363 60 70.2 60Z" fill="#FD9841" stroke="#0D6CBE" stroke-linejoin="round"/>
<path d="M69.091 60.8C67.4674 62.6923 66.2319 64.8854 65.4546 67.2545L70.1 69.8363C70.1 69.8363 70.4819 65.3727 70.4819 60.0727L69.091 60.8Z" fill="#FD9841" stroke="#0D6CBE" stroke-linejoin="round"/>
<path d="M69.0911 58.9727C67.7014 58.4872 66.2672 58.1401 64.8093 57.9363C64.6007 57.916 64.3927 57.9793 64.2308 58.1123C64.0689 58.2452 63.9663 58.437 63.9456 58.6454C63.7812 59.9168 63.849 61.2074 64.1456 62.4545C64.1774 62.5581 64.2298 62.6542 64.2998 62.7369C64.3698 62.8196 64.4558 62.8873 64.5528 62.9357C64.6497 62.9842 64.7554 63.0124 64.8636 63.0188C64.9717 63.0251 65.0801 63.0095 65.182 62.9727C66.5857 62.4953 67.9051 61.7988 69.0911 60.9091V58.9727ZM71.282 58.9727C72.6713 58.4859 74.1057 58.1387 75.5638 57.9363C75.7723 57.916 75.9804 57.9793 76.1423 58.1123C76.3042 58.2452 76.4068 58.437 76.4274 58.6454C76.5883 59.9173 76.5174 61.2079 76.2183 62.4545C76.1876 62.5578 76.1361 62.6537 76.067 62.7363C75.9979 62.819 75.9127 62.8866 75.8165 62.9352C75.7203 62.9837 75.6152 63.012 75.5076 63.0185C75.4001 63.025 75.2924 63.0094 75.1911 62.9727C73.7873 62.4953 72.468 61.7988 71.282 60.9091V58.9727Z" fill="#FD9841" stroke="#0D6CBE" stroke-linejoin="round"/>
<path d="M70.9545 58.5364H69.4454C69.0538 58.5364 68.7363 58.8538 68.7363 59.2455V60.9091C68.7363 61.3007 69.0538 61.6182 69.4454 61.6182H70.9545C71.3461 61.6182 71.6636 61.3007 71.6636 60.9091V59.2455C71.6636 58.8538 71.3461 58.5364 70.9545 58.5364Z" fill="#FD9841" stroke="#0D6CBE"/>
<path d="M73.4272 72.1636C74.1251 72.1636 74.6909 71.5979 74.6909 70.9C74.6909 70.2021 74.1251 69.6364 73.4272 69.6364C72.7293 69.6364 72.1636 70.2021 72.1636 70.9C72.1636 71.5979 72.7293 72.1636 73.4272 72.1636Z" fill="white" stroke="#0D6CBE"/>
<path d="M73.4272 78.3273C74.1251 78.3273 74.6909 77.7615 74.6909 77.0636C74.6909 76.3657 74.1251 75.8 73.4272 75.8C72.7293 75.8 72.1636 76.3657 72.1636 77.0636C72.1636 77.7615 72.7293 78.3273 73.4272 78.3273Z" fill="white" stroke="#0D6CBE"/>
<path d="M82.3636 31.4091C82.366 28.871 81.3613 26.4356 79.57 24.6375C77.7787 22.8393 75.3472 21.8254 72.8091 21.8182H67.5182C64.9801 21.8254 62.5485 22.8393 60.7572 24.6375C58.9659 26.4356 57.9612 28.871 57.9636 31.4091V35.5091H82.3636V31.4091Z" fill="#0D6CBE"/>
<path d="M70.191 19.1727C67.7858 19.1715 65.404 19.6442 63.1816 20.5638C60.9592 21.4834 58.9397 22.8318 57.2386 24.5321C55.5375 26.2324 54.1881 28.2512 53.2674 30.4731C52.3467 32.6951 51.8728 35.0767 51.8728 37.4818C51.8728 38.0091 51.8728 38.5273 51.9546 39.0455C54.4876 37.1314 56.5441 34.658 57.9637 31.8182H82.3637C83.7902 34.6794 85.8631 37.1693 88.4183 39.0909C88.4183 38.5636 88.5001 38.0273 88.5001 37.4909C88.5013 35.0858 88.0286 32.7039 87.109 30.4815C86.1894 28.2591 84.841 26.2397 83.1407 24.5386C81.4404 22.8374 79.4216 21.488 77.1997 20.5673C74.9777 19.6466 72.5961 19.1727 70.191 19.1727Z" fill="#0D6CBE"/>
</svg>
