<svg width="100" height="100" viewBox="0 0 100 100" fill="none" xmlns="http://www.w3.org/2000/svg">
<path d="M48.5181 61.0455C50.6521 61.0383 52.6966 60.1873 54.2055 58.6784C55.7145 57.1694 56.5654 55.1249 56.5726 52.9909C54.4386 52.9981 52.3941 53.849 50.8851 55.358C49.3762 56.8669 48.5253 58.9115 48.5181 61.0455Z" fill="#0D6CBE"/>
<path d="M56.5727 54.7455C57.5417 54.7455 58.3272 53.9599 58.3272 52.9909C58.3272 52.0219 57.5417 51.2364 56.5727 51.2364C55.6037 51.2364 54.8181 52.0219 54.8181 52.9909C54.8181 53.9599 55.6037 54.7455 56.5727 54.7455Z" fill="white" stroke="#0D6CBE"/>
<path d="M90.6363 61.0455C88.5023 61.0383 86.4578 60.1873 84.9489 58.6784C83.4399 57.1694 82.589 55.1249 82.5818 52.9909C84.7143 53.0028 86.7561 53.8553 88.264 55.3632C89.772 56.8712 90.6244 58.9129 90.6363 61.0455Z" fill="#0D6CBE"/>
<path d="M82.5817 54.7455C83.5507 54.7455 84.3362 53.9599 84.3362 52.9909C84.3362 52.0219 83.5507 51.2364 82.5817 51.2364C81.6127 51.2364 80.8271 52.0219 80.8271 52.9909C80.8271 53.9599 81.6127 54.7455 82.5817 54.7455Z" fill="white" stroke="#0D6CBE"/>
<path d="M69.5545 55.1273C71.5059 55.1273 73.4381 55.5122 75.2405 56.2601C77.0429 57.008 78.6801 58.104 80.0583 59.4856C81.4364 60.8671 82.5285 62.507 83.2719 64.3112C84.0154 66.1154 84.3956 68.0486 84.3908 70V81.4818H54.709V70C54.7042 68.0478 55.0848 66.1139 55.8288 64.3091C56.5728 62.5043 57.6657 60.864 59.0448 59.4824C60.424 58.1007 62.0622 57.0048 63.8656 56.2575C65.6691 55.5101 67.6023 55.1261 69.5545 55.1273Z" fill="white" stroke="#0D6CBE"/>
<path d="M69.5545 60.7455C72.105 60.7455 74.1726 58.6778 74.1726 56.1273C74.1726 53.5767 72.105 51.5091 69.5545 51.5091C67.0039 51.5091 64.9363 53.5767 64.9363 56.1273C64.9363 58.6778 67.0039 60.7455 69.5545 60.7455Z" stroke="#0D6CBE" stroke-miterlimit="10"/>
<path d="M72.2908 65.7546H78.9544V71.1273C78.9544 71.9422 78.6307 72.7238 78.0544 73.3C77.4782 73.8763 76.6966 74.2 75.8817 74.2H75.3635C74.5486 74.2 73.767 73.8763 73.1908 73.3C72.6145 72.7238 72.2908 71.9422 72.2908 71.1273V65.7546Z" fill="#FD9841" stroke="#0D6CBE" stroke-linecap="round" stroke-linejoin="round"/>
<path d="M95.2727 40.9091C94.5454 38.4 83.3181 36.3636 69.5727 36.3636C55.8272 36.3636 44.6091 38.3636 43.8727 40.9091C43.8683 40.9969 43.8683 41.0849 43.8727 41.1727C43.8727 43.8 55.3909 45.9364 69.6091 45.9364C83.8272 45.9364 95.3545 43.8 95.3545 41.1727C95.3364 41.0823 95.309 40.9939 95.2727 40.9091Z" fill="white" stroke="#0D6CBE" stroke-linecap="round" stroke-linejoin="round"/>
<path d="M69.5725 57.8182C79.9404 57.8182 88.3453 49.4133 88.3453 39.0454C88.3453 28.6775 79.9404 20.2727 69.5725 20.2727C59.2046 20.2727 50.7998 28.6775 50.7998 39.0454C50.7998 49.4133 59.2046 57.8182 69.5725 57.8182Z" fill="white"/>
<path d="M69.5725 57.4636C79.7446 57.4636 87.9907 49.2175 87.9907 39.0454C87.9907 28.8734 79.7446 20.6273 69.5725 20.6273C59.4004 20.6273 51.1543 28.8734 51.1543 39.0454C51.1543 49.2175 59.4004 57.4636 69.5725 57.4636Z" stroke="#0D6CBE"/>
<path d="M75.809 42.6364C76.5471 42.6364 77.1454 41.8386 77.1454 40.8546C77.1454 39.8705 76.5471 39.0728 75.809 39.0728C75.071 39.0728 74.4727 39.8705 74.4727 40.8546C74.4727 41.8386 75.071 42.6364 75.809 42.6364Z" fill="#0D6CBE"/>
<path d="M63.3364 42.6364C64.0744 42.6364 64.6727 41.8386 64.6727 40.8546C64.6727 39.8705 64.0744 39.0728 63.3364 39.0728C62.5983 39.0728 62 39.8705 62 40.8546C62 41.8386 62.5983 42.6364 63.3364 42.6364Z" fill="#0D6CBE"/>
<path d="M69.5726 36.4364C83.318 36.4364 94.5453 38.4364 95.2726 40.9818C94.8544 37.8546 87.018 31.2091 87.018 31.2091C87.018 31.2091 83.4544 22.8364 81.6362 21.1C79.818 19.3636 75.5544 18.5182 69.5726 18.5182C63.5907 18.5182 59.3453 19.3546 57.5271 21.1C55.7089 22.8455 52.1544 31.1727 52.1544 31.1727C52.1544 31.1727 44.2998 37.8182 43.8726 40.9091C44.6089 38.4364 55.8271 36.4364 69.5726 36.4364Z" fill="#FD9841" stroke="#0D6CBE" stroke-linecap="round" stroke-linejoin="round"/>
<path d="M72.7271 22.9728C72.6208 22.6426 72.3878 22.3681 72.0793 22.2096C71.7708 22.0511 71.412 22.0215 71.0817 22.1273H70.9635C70.8544 22.2 70.7908 22.1273 70.8181 22.0273V21.9C70.8181 21.7281 70.7842 21.5579 70.7184 21.3991C70.6526 21.2402 70.5562 21.0959 70.4346 20.9744C70.3131 20.8528 70.1688 20.7564 70.0099 20.6906C69.8511 20.6248 69.6809 20.5909 69.509 20.5909C69.3371 20.5909 69.1668 20.6248 69.008 20.6906C68.8492 20.7564 68.7049 20.8528 68.5833 20.9744C68.4617 21.0959 68.3653 21.2402 68.2995 21.3991C68.2337 21.5579 68.1999 21.7281 68.1999 21.9V22.0273C68.1999 22.1455 68.1999 22.2 68.0544 22.1273H67.9362C67.7707 22.067 67.5947 22.0407 67.4188 22.05C67.2429 22.0593 67.0706 22.1041 66.9124 22.1815C66.7542 22.259 66.6132 22.3676 66.498 22.5009C66.3827 22.6341 66.2955 22.7892 66.2417 22.957C66.1878 23.1247 66.1683 23.3016 66.1844 23.477C66.2006 23.6525 66.2519 23.8228 66.3354 23.978C66.419 24.1331 66.533 24.2697 66.6706 24.3797C66.8082 24.4898 66.9665 24.5709 67.1362 24.6182H67.2453C67.3726 24.6182 67.3999 24.7091 67.309 24.7909L67.2362 24.8909C67.118 25.028 67.0295 25.188 66.9763 25.361C66.9231 25.534 66.9063 25.7161 66.927 25.8959C66.9477 26.0756 67.0055 26.2492 67.0967 26.4055C67.1879 26.5618 67.3104 26.6976 67.4567 26.8041C67.603 26.9107 67.7698 26.9857 67.9465 27.0246C68.1233 27.0634 68.3062 27.0652 68.4836 27.0298C68.6611 26.9944 68.8293 26.9226 68.9776 26.8189C69.1259 26.7152 69.2511 26.5818 69.3453 26.4273L69.4181 26.3273C69.4726 26.2091 69.5544 26.2091 69.5999 26.3273L69.6726 26.4273C69.7698 26.5713 69.8946 26.6946 70.0399 26.7899C70.1852 26.8851 70.348 26.9506 70.5189 26.9823C70.6897 27.014 70.8651 27.0114 71.0349 26.9746C71.2047 26.9378 71.3655 26.8676 71.5079 26.768C71.6503 26.6685 71.7715 26.5416 71.8643 26.3947C71.9572 26.2479 72.0198 26.084 72.0487 25.9127C72.0776 25.7413 72.0721 25.566 72.0325 25.3968C71.9929 25.2276 71.92 25.068 71.8181 24.9273L71.7453 24.8273C71.6453 24.7455 71.6726 24.6637 71.7999 24.6546H71.9181C72.0832 24.5995 72.2356 24.5119 72.3662 24.3969C72.4968 24.2818 72.603 24.1417 72.6785 23.9849C72.7539 23.828 72.7971 23.6576 72.8055 23.4838C72.8138 23.3099 72.7872 23.1361 72.7271 22.9728Z" fill="white"/>
<path d="M72.7271 22.9728C72.6208 22.6426 72.3878 22.3681 72.0793 22.2096C71.7708 22.0511 71.412 22.0215 71.0817 22.1273H70.9635C70.8544 22.2 70.7908 22.1273 70.8181 22.0273V21.9C70.8181 21.7281 70.7842 21.5579 70.7184 21.3991C70.6526 21.2402 70.5562 21.0959 70.4346 20.9744C70.3131 20.8528 70.1688 20.7564 70.0099 20.6906C69.8511 20.6248 69.6809 20.5909 69.509 20.5909C69.3371 20.5909 69.1668 20.6248 69.008 20.6906C68.8492 20.7564 68.7049 20.8528 68.5833 20.9744C68.4617 21.0959 68.3653 21.2402 68.2995 21.3991C68.2337 21.5579 68.1999 21.7281 68.1999 21.9V22.0273C68.1999 22.1455 68.1999 22.2 68.0544 22.1273H67.9362C67.7707 22.067 67.5947 22.0407 67.4188 22.05C67.2429 22.0593 67.0706 22.1041 66.9124 22.1815C66.7542 22.259 66.6132 22.3676 66.498 22.5009C66.3827 22.6341 66.2955 22.7892 66.2417 22.957C66.1878 23.1247 66.1683 23.3016 66.1844 23.477C66.2006 23.6525 66.2519 23.8228 66.3354 23.978C66.419 24.1331 66.533 24.2697 66.6706 24.3797C66.8082 24.4898 66.9665 24.5709 67.1362 24.6182H67.2453C67.3726 24.6182 67.3999 24.7091 67.309 24.7909L67.2362 24.8909C67.118 25.028 67.0295 25.188 66.9763 25.361C66.9231 25.534 66.9063 25.7161 66.927 25.8959C66.9477 26.0756 67.0055 26.2492 67.0967 26.4055C67.1879 26.5618 67.3104 26.6976 67.4567 26.8041C67.603 26.9107 67.7698 26.9857 67.9465 27.0246C68.1233 27.0634 68.3062 27.0652 68.4836 27.0298C68.6611 26.9944 68.8293 26.9226 68.9776 26.8189C69.1259 26.7152 69.2511 26.5818 69.3453 26.4273L69.4181 26.3273C69.4726 26.2091 69.5544 26.2091 69.5999 26.3273L69.6726 26.4273C69.7698 26.5713 69.8946 26.6946 70.0399 26.7899C70.1852 26.8851 70.348 26.9506 70.5189 26.9823C70.6897 27.014 70.8651 27.0114 71.0349 26.9746C71.2047 26.9378 71.3655 26.8676 71.5079 26.768C71.6503 26.6685 71.7715 26.5416 71.8643 26.3947C71.9572 26.2479 72.0198 26.084 72.0487 25.9127C72.0776 25.7413 72.0721 25.566 72.0325 25.3968C71.9929 25.2276 71.92 25.068 71.8181 24.9273L71.7453 24.8273C71.6453 24.7455 71.6726 24.6637 71.7999 24.6546H71.9181C72.0832 24.5995 72.2356 24.5119 72.3662 24.3969C72.4968 24.2818 72.603 24.1417 72.6785 23.9849C72.7539 23.828 72.7971 23.6576 72.8055 23.4838C72.8138 23.3099 72.7872 23.1361 72.7271 22.9728V22.9728Z" stroke="#0D6CBE"/>
<path d="M43.8364 41.2091C43.832 41.1213 43.832 41.0333 43.8364 40.9455C43.8224 41.0328 43.8224 41.1218 43.8364 41.2091V41.2091ZM95.2727 40.9091C95.2814 40.9968 95.2814 41.0851 95.2727 41.1728C95.2865 41.0854 95.2865 40.9965 95.2727 40.9091V40.9091Z" stroke="#0D6CBE" stroke-linecap="round" stroke-linejoin="round"/>
<path d="M69.5271 28.9C62.4453 28.9 57.3362 29.8091 55.1816 30.5637M69.5271 28.9C76.618 28.9 81.718 29.8091 83.8726 30.5637" stroke="#0D6CBE" stroke-miterlimit="10" stroke-linecap="round"/>
<path d="M66.4543 45.5273C66.8231 46.003 67.2958 46.388 67.8363 46.6528C68.3768 46.9177 68.9707 47.0554 69.5725 47.0554C70.1744 47.0554 70.7683 46.9177 71.3088 46.6528C71.8492 46.388 72.3219 46.003 72.6907 45.5273" stroke="#0D6CBE" stroke-linecap="round"/>
<path d="M87.9544 37.8636C86.7543 37.605 85.5402 37.4168 84.3181 37.3C84.3181 37.3 84.8726 41.4818 87.4635 43.4545C87.8613 41.6189 88.0262 39.7405 87.9544 37.8636ZM51.1999 37.8636C52.3999 37.6042 53.6141 37.416 54.8363 37.3C54.8363 37.3 54.2908 41.4818 51.6908 43.4545C51.29 41.6194 51.1251 39.7406 51.1999 37.8636Z" fill="#0D6CBE"/>
<path d="M30.409 55.1273C32.3604 55.1273 34.2926 55.5122 36.095 56.2601C37.8974 57.008 39.5346 58.104 40.9127 59.4856C42.2909 60.8671 43.383 62.507 44.1264 64.3112C44.8699 66.1154 45.2501 68.0486 45.2453 70V81.4818H15.5635V70C15.5587 68.0478 15.9393 66.1139 16.6833 64.3091C17.4273 62.5043 18.5202 60.864 19.8993 59.4824C21.2784 58.1007 22.9167 57.0048 24.7201 56.2575C26.5236 55.5101 28.4568 55.1261 30.409 55.1273Z" fill="white" stroke="#0D6CBE"/>
<path d="M30.409 60.7455C32.9595 60.7455 35.0271 58.6778 35.0271 56.1273C35.0271 53.5767 32.9595 51.5091 30.409 51.5091C27.8584 51.5091 25.7908 53.5767 25.7908 56.1273C25.7908 58.6778 27.8584 60.7455 30.409 60.7455Z" stroke="#0D6CBE" stroke-miterlimit="10"/>
<path d="M33.1362 65.7546H39.7999V71.1273C39.7999 71.5308 39.7204 71.9304 39.566 72.3032C39.4115 72.676 39.1852 73.0147 38.8999 73.3C38.6146 73.5854 38.2758 73.8117 37.903 73.9661C37.5302 74.1205 37.1307 74.2 36.7271 74.2H36.209C35.394 74.2 34.6125 73.8763 34.0362 73.3C33.46 72.7238 33.1362 71.9422 33.1362 71.1273V65.7546Z" fill="#FD9841" stroke="#0D6CBE" stroke-linecap="round" stroke-linejoin="round"/>
<path d="M56.1272 40.9091C55.3909 38.4 44.1727 36.3636 30.4272 36.3636C16.6818 36.3636 5.45449 38.4364 4.72722 40.9091C4.71853 40.9968 4.71853 41.0851 4.72722 41.1727C4.72722 43.8 16.2545 49.2091 30.4727 49.2091C44.6909 49.2091 56.209 43.7546 56.209 41.1727C56.1864 41.0835 56.1591 40.9955 56.1272 40.9091Z" fill="white" stroke="#0D6CBE" stroke-linecap="round" stroke-linejoin="round"/>
<path d="M30.4273 57.8182C40.7952 57.8182 49.2 49.4133 49.2 39.0454C49.2 28.6775 40.7952 20.2727 30.4273 20.2727C20.0594 20.2727 11.6545 28.6775 11.6545 39.0454C11.6545 49.4133 20.0594 57.8182 30.4273 57.8182Z" fill="white"/>
<path d="M30.4272 57.4636C40.5993 57.4636 48.8454 49.2175 48.8454 39.0454C48.8454 28.8734 40.5993 20.6273 30.4272 20.6273C20.2551 20.6273 12.009 28.8734 12.009 39.0454C12.009 49.2175 20.2551 57.4636 30.4272 57.4636Z" stroke="#0D6CBE"/>
<path d="M36.6635 42.6364C37.4016 42.6364 37.9999 41.8386 37.9999 40.8546C37.9999 39.8705 37.4016 39.0728 36.6635 39.0728C35.9255 39.0728 35.3271 39.8705 35.3271 40.8546C35.3271 41.8386 35.9255 42.6364 36.6635 42.6364Z" fill="#0D6CBE"/>
<path d="M24.1909 42.6364C24.9289 42.6364 25.5272 41.8386 25.5272 40.8546C25.5272 39.8705 24.9289 39.0728 24.1909 39.0728C23.4528 39.0728 22.8545 39.8705 22.8545 40.8546C22.8545 41.8386 23.4528 42.6364 24.1909 42.6364Z" fill="#0D6CBE"/>
<path d="M30.4273 36.4364C44.1728 36.4364 55.3909 38.4364 56.1273 40.9818C55.7 37.8546 47.8637 31.2091 47.8637 31.2091C47.8637 31.2091 44.3091 22.8727 42.4909 21.1364C40.6728 19.4 36.4091 18.5546 30.4273 18.5546C24.4455 18.5546 20.2 19.3909 18.3818 21.1364C16.5637 22.8818 13 31.2091 13 31.2091C13 31.2091 5.14548 37.8182 4.72729 40.9091C5.45457 38.4364 16.6818 36.4364 30.4273 36.4364Z" fill="#FD9841" stroke="#0D6CBE" stroke-linecap="round" stroke-linejoin="round"/>
<path d="M33.6363 22.9728C33.53 22.6426 33.297 22.3681 32.9885 22.2096C32.68 22.0511 32.3212 22.0215 31.9909 22.1273H31.8727C31.7636 22.2 31.6909 22.1273 31.7272 22.0273V21.9C31.7272 21.5528 31.5893 21.2199 31.3438 20.9744C31.0983 20.7289 30.7653 20.5909 30.4181 20.5909C30.0709 20.5909 29.738 20.7289 29.4925 20.9744C29.247 21.2199 29.109 21.5528 29.109 21.9V22.0273C29.109 22.1455 29.109 22.2 28.9636 22.1273H28.8454C28.5151 22.02 28.1557 22.0483 27.8462 22.206C27.5368 22.3637 27.3027 22.6379 27.1954 22.9682C27.0881 23.2985 27.1164 23.6579 27.2741 23.9674C27.4318 24.2768 27.706 24.5109 28.0363 24.6182H28.1545C28.2818 24.6182 28.309 24.7091 28.209 24.7909L28.1363 24.8909C27.9463 25.1724 27.8731 25.5166 27.9321 25.851C27.9911 26.1854 28.1778 26.4838 28.4527 26.6831C28.7275 26.8825 29.0691 26.9673 29.4053 26.9195C29.7415 26.8718 30.046 26.6953 30.2545 26.4273L30.3272 26.3273C30.3272 26.2091 30.4545 26.2091 30.509 26.3273L30.5818 26.4273C30.7903 26.6953 31.0948 26.8718 31.431 26.9195C31.7671 26.9673 32.1087 26.8825 32.3836 26.6831C32.6585 26.4838 32.8451 26.1854 32.9041 25.851C32.9632 25.5166 32.89 25.1724 32.7 24.8909L32.6272 24.7909C32.5272 24.7091 32.5545 24.6273 32.6818 24.6182H32.8C33.1284 24.51 33.4008 24.2763 33.5575 23.968C33.7142 23.6597 33.7425 23.3019 33.6363 22.9728Z" fill="white"/>
<path d="M33.6363 22.9728C33.53 22.6426 33.297 22.3681 32.9885 22.2096C32.68 22.0511 32.3212 22.0215 31.9909 22.1273H31.8727C31.7636 22.2 31.6909 22.1273 31.7272 22.0273V21.9C31.7272 21.5528 31.5893 21.2199 31.3438 20.9744C31.0983 20.7289 30.7653 20.5909 30.4181 20.5909C30.0709 20.5909 29.738 20.7289 29.4925 20.9744C29.247 21.2199 29.109 21.5528 29.109 21.9V22.0273C29.109 22.1455 29.109 22.2 28.9636 22.1273H28.8454C28.5151 22.02 28.1557 22.0483 27.8462 22.206C27.5368 22.3637 27.3027 22.6379 27.1954 22.9682C27.0881 23.2985 27.1164 23.6579 27.2741 23.9674C27.4318 24.2768 27.706 24.5109 28.0363 24.6182H28.1545C28.2818 24.6182 28.309 24.7091 28.209 24.7909L28.1363 24.8909C27.9463 25.1724 27.8731 25.5166 27.9321 25.851C27.9911 26.1854 28.1778 26.4838 28.4527 26.6831C28.7275 26.8825 29.0691 26.9673 29.4053 26.9195C29.7415 26.8718 30.046 26.6953 30.2545 26.4273L30.3272 26.3273C30.3272 26.2091 30.4545 26.2091 30.509 26.3273L30.5818 26.4273C30.7903 26.6953 31.0948 26.8718 31.431 26.9195C31.7671 26.9673 32.1087 26.8825 32.3836 26.6831C32.6585 26.4838 32.8451 26.1854 32.9041 25.851C32.9632 25.5166 32.89 25.1724 32.7 24.8909L32.6272 24.7909C32.5272 24.7091 32.5545 24.6273 32.6818 24.6182H32.8C33.1284 24.51 33.4008 24.2763 33.5575 23.968C33.7142 23.6597 33.7425 23.3019 33.6363 22.9728V22.9728Z" stroke="#0D6CBE"/>
<path d="M4.68173 41.2091C4.67304 41.1215 4.67304 41.0331 4.68173 40.9455C4.66794 41.0328 4.66794 41.1218 4.68173 41.2091V41.2091ZM56.1272 40.9091C56.1316 40.9969 56.1316 41.0849 56.1272 41.1728C56.1411 41.0854 56.1411 40.9964 56.1272 40.9091V40.9091Z" stroke="#0D6CBE" stroke-linecap="round" stroke-linejoin="round"/>
<path d="M30.3818 28.9C23.2909 28.9 18.1909 29.8091 16.0364 30.5637M30.3818 28.9C37.4727 28.9 42.5727 29.8091 44.7273 30.5637" stroke="#0D6CBE" stroke-miterlimit="10" stroke-linecap="round"/>
<path d="M27.2727 45.5273C27.6415 46.003 28.1142 46.388 28.6546 46.6528C29.1951 46.9177 29.789 47.0554 30.3909 47.0554C30.9928 47.0554 31.5867 46.9177 32.1271 46.6528C32.6676 46.388 33.1403 46.003 33.5091 45.5273" stroke="#0D6CBE" stroke-linecap="round"/>
</svg>
